<svg width="68" height="68" viewBox="0 0 68 68" fill="none" xmlns="http://www.w3.org/2000/svg">
<path d="M55.6643 57.3118H11.133C10.9018 57.3118 10.6801 57.22 10.5166 57.0565C10.3531 56.893 10.2612 56.6712 10.2612 56.44V12.8503C10.2612 12.6075 10.3577 12.3747 10.5293 12.203C10.701 12.0313 10.9338 11.9349 11.1766 11.9349C11.4194 11.9349 11.6522 12.0313 11.8239 12.203C11.9956 12.3747 12.092 12.6075 12.092 12.8503V55.5682H55.6817C55.802 55.5682 55.921 55.5919 56.032 55.6379C56.1431 55.6839 56.244 55.7513 56.329 55.8363C56.414 55.9213 56.4814 56.0222 56.5274 56.1333C56.5734 56.2444 56.5971 56.3634 56.5971 56.4836C56.5971 56.6038 56.5734 56.7228 56.5274 56.8339C56.4814 56.945 56.414 57.0459 56.329 57.1309C56.244 57.2159 56.1431 57.2833 56.032 57.3293C55.921 57.3753 55.802 57.399 55.6817 57.399L55.6643 57.3118Z" fill="#000DFF"/>
<path d="M8.39551 13.6087L11.1329 8.86615L13.8704 13.6087H8.39551Z" fill="#000DFF"/>
<path d="M54.8623 59.1339L59.6049 56.3964L54.8623 53.659V59.1339Z" fill="#000DFF"/>
<path d="M24.7243 53.7113H16.634C16.4028 53.7113 16.181 53.6195 16.0175 53.456C15.8541 53.2925 15.7622 53.0707 15.7622 52.8395V36.319C15.7622 36.0878 15.8541 35.866 16.0175 35.7025C16.181 35.5391 16.4028 35.4472 16.634 35.4472H24.7243C24.9555 35.4472 25.1772 35.5391 25.3407 35.7025C25.5042 35.866 25.5961 36.0878 25.5961 36.319V52.7959C25.602 52.914 25.5838 53.0321 25.5426 53.1429C25.5015 53.2538 25.4382 53.3551 25.3566 53.4407C25.2751 53.5264 25.177 53.5945 25.0683 53.641C24.9595 53.6875 24.8425 53.7115 24.7243 53.7113ZM17.5494 51.8805H23.8089V37.2344H17.5494V51.8805Z" fill="#000DFF"/>
<path d="M32.8057 53.7113H24.7242C24.6061 53.7172 24.488 53.699 24.3771 53.6579C24.2663 53.6167 24.165 53.5534 24.0793 53.4719C23.9937 53.3903 23.9256 53.2922 23.879 53.1835C23.8325 53.0748 23.8086 52.9577 23.8088 52.8395V28.0718C23.8025 27.9499 23.8219 27.8281 23.8657 27.7142C23.9095 27.6003 23.9767 27.4969 24.063 27.4106C24.1492 27.3243 24.2527 27.2571 24.3666 27.2133C24.4805 27.1696 24.6023 27.1502 24.7242 27.1564H32.8057C32.9239 27.1563 33.041 27.1802 33.1497 27.2267C33.2584 27.2732 33.3565 27.3414 33.4381 27.427C33.5196 27.5126 33.5829 27.6139 33.6241 27.7248C33.6652 27.8356 33.6834 27.9537 33.6775 28.0718V52.7959C33.6834 52.914 33.6652 53.0321 33.6241 53.1429C33.5829 53.2538 33.5196 53.3551 33.4381 53.4407C33.3565 53.5264 33.2584 53.5945 33.1497 53.641C33.041 53.6875 32.9239 53.7114 32.8057 53.7113ZM25.6308 51.8805H31.8903V28.9872H25.6308V51.8805Z" fill="#000DFF"/>
<path d="M45.7694 53.7113H37.6878C37.4566 53.7113 37.2349 53.6194 37.0714 53.4559C36.9079 53.2924 36.816 53.0707 36.816 52.8395V30.94C36.8101 30.8219 36.8283 30.7038 36.8695 30.593C36.9106 30.4821 36.9739 30.3808 37.0554 30.2952C37.137 30.2095 37.2351 30.1414 37.3438 30.0949C37.4525 30.0484 37.5696 30.0244 37.6878 30.0246H45.7694C45.8876 30.0244 46.0047 30.0484 46.1134 30.0949C46.2221 30.1414 46.3202 30.2095 46.4018 30.2952C46.4833 30.3808 46.5466 30.4821 46.5877 30.593C46.6289 30.7038 46.6471 30.8219 46.6412 30.94V52.7959C46.6471 52.914 46.6289 53.0321 46.5877 53.1429C46.5466 53.2538 46.4833 53.3551 46.4018 53.4407C46.3202 53.5263 46.2221 53.5945 46.1134 53.641C46.0047 53.6875 45.8876 53.7114 45.7694 53.7113ZM38.6032 51.8805H44.854V31.8292H38.6032V51.8805Z" fill="#000DFF"/>
<path d="M53.8509 53.7113H45.7694C45.5382 53.7113 45.3164 53.6195 45.1529 53.456C44.9894 53.2925 44.8976 53.0707 44.8976 52.8395V19.9903C44.8917 19.8722 44.9098 19.7541 44.951 19.6433C44.9922 19.5324 45.0554 19.4311 45.137 19.3454C45.2185 19.2598 45.3166 19.1917 45.4254 19.1452C45.5341 19.0987 45.6511 19.0747 45.7694 19.0749H53.8509C53.9692 19.0747 54.0862 19.0987 54.1949 19.1452C54.3036 19.1917 54.4017 19.2598 54.4833 19.3454C54.5648 19.4311 54.6281 19.5324 54.6693 19.6433C54.7104 19.7541 54.7286 19.8722 54.7227 19.9903V52.7959C54.7286 52.914 54.7104 53.0321 54.6693 53.1429C54.6281 53.2538 54.5648 53.3551 54.4833 53.4408C54.4017 53.5264 54.3036 53.5945 54.1949 53.641C54.0862 53.6875 53.9692 53.7115 53.8509 53.7113ZM46.6848 51.8805H52.9355V20.9231H46.6848V51.8805Z" fill="#000DFF"/>
</svg>
