<svg width="68" height="68" viewBox="0 0 68 68" fill="none" xmlns="http://www.w3.org/2000/svg">
<path d="M31.3846 23.1026C22.6667 23.1026 13.321 20.7923 13.321 16.5641C13.321 12.3359 22.6667 9.93848 31.3846 9.93848C40.1026 9.93848 49.4831 12.2487 49.4831 16.5641C49.4831 20.8795 40.1636 23.1026 31.3846 23.1026ZM31.3846 11.7692C21.3154 11.7692 15.1431 14.5328 15.1431 16.5118C15.1431 18.4908 21.3328 21.2631 31.3846 21.2631C41.4364 21.2631 47.6436 18.4995 47.6436 16.5641C47.6436 14.6287 41.4626 11.778 31.3846 11.778V11.7692Z" fill="#000DFF"/>
<path d="M31.3847 34.4272C22.6145 34.4272 13.3037 32.1169 13.3037 27.8451C13.326 27.6166 13.4325 27.4046 13.6025 27.2504C13.7725 27.0961 13.9939 27.0107 14.2235 27.0107C14.453 27.0107 14.6744 27.0961 14.8444 27.2504C15.0144 27.4046 15.1209 27.6166 15.1432 27.8451C15.1432 29.8241 21.3155 32.5877 31.3847 32.5877C32.8058 32.5877 34.2268 32.5354 35.5955 32.4133C35.8383 32.3925 36.0794 32.469 36.2658 32.626C36.4521 32.7829 36.5685 33.0075 36.5894 33.2503C36.6102 33.493 36.5337 33.7341 36.3767 33.9205C36.2198 34.1069 35.9952 34.2233 35.7524 34.2441C34.3488 34.3662 32.8755 34.4272 31.3847 34.4272Z" fill="#000DFF"/>
<path d="M31.3847 45.7518C22.6145 45.7518 13.3037 43.4415 13.3037 39.1697C13.326 38.9412 13.4325 38.7292 13.6025 38.575C13.7725 38.4207 13.9939 38.3353 14.2235 38.3353C14.453 38.3353 14.6744 38.4207 14.8444 38.575C15.0144 38.7292 15.1209 38.9412 15.1432 39.1697C15.1432 41.1487 21.3155 43.9123 31.3847 43.9123C33.2579 43.9133 35.1296 43.8056 36.9904 43.5897C37.223 43.5812 37.4502 43.6608 37.6266 43.8126C37.8031 43.9643 37.9158 44.1771 37.9422 44.4083C37.9686 44.6395 37.9069 44.8722 37.7692 45.0598C37.6315 45.2475 37.4281 45.3763 37.1996 45.4205C35.269 45.6394 33.3277 45.75 31.3847 45.7518Z" fill="#000DFF"/>
<path d="M48.5589 25.1164C48.4408 25.1223 48.3228 25.1042 48.2119 25.063C48.1011 25.0219 47.9997 24.9586 47.9141 24.877C47.8285 24.7955 47.7603 24.6974 47.7138 24.5886C47.6673 24.4799 47.6434 24.3629 47.6436 24.2446V16.5641C47.6658 16.3356 47.7723 16.1236 47.9424 15.9694C48.1124 15.8151 48.3337 15.7297 48.5633 15.7297C48.7929 15.7297 49.0142 15.8151 49.1842 15.9694C49.3542 16.1236 49.4608 16.3356 49.483 16.5641V24.2446C49.4718 24.4813 49.3692 24.7044 49.1968 24.8669C49.0245 25.0295 48.7958 25.119 48.5589 25.1164Z" fill="#000DFF"/>
<path d="M31.3847 57.0764C22.6145 57.0764 13.3037 54.7749 13.3037 50.4944V16.5641C13.326 16.3356 13.4325 16.1236 13.6025 15.9694C13.7725 15.8151 13.9939 15.7297 14.2235 15.7297C14.453 15.7297 14.6744 15.8151 14.8444 15.9694C15.0144 16.1236 15.1209 16.3356 15.1432 16.5641V50.5641C15.1432 52.5518 21.3155 55.3067 31.3847 55.3067C33.259 55.283 35.1304 55.1549 36.9904 54.9231C37.111 54.902 37.2346 54.9066 37.3533 54.9365C37.472 54.9664 37.5831 55.0209 37.6793 55.0966C37.7755 55.1722 37.8547 55.2673 37.9118 55.3756C37.9688 55.4839 38.0024 55.603 38.0104 55.7252C38.0374 55.9678 37.9673 56.2113 37.8153 56.4024C37.6634 56.5935 37.4421 56.7167 37.1996 56.7451C35.269 56.9641 33.3277 57.0747 31.3847 57.0764Z" fill="#000DFF"/>
<path d="M45.8304 58.0615C45.6993 58.0597 45.5701 58.03 45.4513 57.9744C45.3326 57.9188 45.227 57.8385 45.1417 57.739L37.2084 48.4805C37.0907 48.3499 37.0152 48.1868 36.9918 48.0125C36.9685 47.8383 36.9984 47.6611 37.0776 47.5041C37.146 47.3423 37.2617 47.205 37.4095 47.1101C37.5573 47.0153 37.7303 46.9672 37.9058 46.9723H40.5212V27.8451C40.5149 27.7233 40.5343 27.6014 40.5781 27.4875C40.6219 27.3737 40.6891 27.2702 40.7754 27.1839C40.8617 27.0976 40.9651 27.0304 41.079 26.9867C41.1929 26.9429 41.3147 26.9235 41.4366 26.9297H50.233C50.3548 26.9235 50.4767 26.9429 50.5906 26.9867C50.7045 27.0304 50.8079 27.0976 50.8942 27.1839C50.9805 27.2702 51.0477 27.3737 51.0915 27.4875C51.1352 27.6014 51.1546 27.7233 51.1484 27.8451V46.9723H53.7638C53.9385 46.9723 54.1096 47.0223 54.2568 47.1165C54.404 47.2106 54.5212 47.3449 54.5945 47.5035C54.6679 47.6621 54.6943 47.8384 54.6707 48.0115C54.647 48.1846 54.5744 48.3474 54.4612 48.4805L46.5279 57.739C46.4415 57.8396 46.3346 57.9205 46.2143 57.9762C46.0939 58.0318 45.963 58.0609 45.8304 58.0615ZM39.9022 48.8205L45.8304 55.7949L51.7673 48.8205H50.233C50.0018 48.8205 49.78 48.7287 49.6165 48.5652C49.453 48.4017 49.3612 48.1799 49.3612 47.9487V28.7692H42.3868V47.8877C42.3868 48.1189 42.295 48.3406 42.1315 48.5041C41.968 48.6676 41.7462 48.7595 41.515 48.7595L39.9022 48.8205Z" fill="#000DFF"/>
</svg>
