<svg width="68" height="68" viewBox="0 0 68 68" fill="none" xmlns="http://www.w3.org/2000/svg">
<path d="M38.7688 54.8533H29.2314C29.1146 54.854 28.9988 54.8312 28.891 54.7863C28.7832 54.7413 28.6855 54.6752 28.6037 54.5918L26.4242 52.3774H10.4616C10.2304 52.3774 10.0087 52.2856 9.84519 52.1221C9.68169 51.9586 9.58984 51.7368 9.58984 51.5056V22.9282C9.58984 22.697 9.68169 22.4752 9.84519 22.3117C10.0087 22.1482 10.2304 22.0564 10.4616 22.0564C10.6929 22.0564 10.9146 22.1482 11.0781 22.3117C11.2416 22.4752 11.3334 22.697 11.3334 22.9282V50.5641H26.7991C26.9165 50.5645 27.0326 50.5887 27.1405 50.6351C27.2484 50.6816 27.3457 50.7493 27.4268 50.8343L29.6411 53.0749H38.3591L40.5386 50.8692C40.6196 50.7842 40.717 50.7165 40.8248 50.67C40.9327 50.6236 41.0488 50.5994 41.1663 50.599H56.6145V22.9282C56.6145 22.697 56.7063 22.4752 56.8698 22.3117C57.0333 22.1482 57.255 22.0564 57.4863 22.0564C57.7175 22.0564 57.9392 22.1482 58.1027 22.3117C58.2662 22.4752 58.358 22.697 58.358 22.9282V51.4882C58.358 51.7194 58.2662 51.9411 58.1027 52.1046C57.9392 52.2681 57.7175 52.36 57.4863 52.36H41.576L39.3965 54.5743C39.3162 54.6609 39.2192 54.7303 39.1113 54.7783C39.0034 54.8262 38.8869 54.8517 38.7688 54.8533Z" fill="#000DFF"/>
<path d="M34.0002 51.2005C33.7689 51.2005 33.5472 51.1087 33.3837 50.9452C33.2202 50.7817 33.1284 50.5599 33.1284 50.3287C33.1284 48.9949 30.6525 48.6897 30.1991 48.6897H14.6289C14.3977 48.6897 14.1759 48.5979 14.0124 48.4344C13.8489 48.2709 13.7571 48.0492 13.7571 47.8179V20.5656C13.7571 20.3344 13.8489 20.1127 14.0124 19.9492C14.1759 19.7857 14.3977 19.6938 14.6289 19.6938C14.8601 19.6938 15.0818 19.7857 15.2453 19.9492C15.4088 20.1127 15.5007 20.3344 15.5007 20.5656V46.8938H30.1817C31.4022 46.8938 34.8894 47.5215 34.8894 50.3113C34.8918 50.4287 34.8704 50.5454 34.8265 50.6544C34.7827 50.7633 34.7173 50.8623 34.6342 50.9453C34.5512 51.0284 34.4522 51.0938 34.3432 51.1377C34.2343 51.1815 34.1176 51.2029 34.0002 51.2005Z" fill="#000DFF"/>
<path d="M34 51.2005C33.7688 51.2005 33.547 51.1087 33.3835 50.9452C33.22 50.7817 33.1282 50.5599 33.1282 50.3287C33.1282 47.539 36.6154 46.9113 37.8359 46.9113H52.482V20.5656C52.482 20.3344 52.5739 20.1127 52.7374 19.9492C52.9009 19.7857 53.1226 19.6938 53.3538 19.6938C53.585 19.6938 53.8068 19.7857 53.9703 19.9492C54.1338 20.1127 54.2256 20.3344 54.2256 20.5656V47.7831C54.2256 48.0143 54.1338 48.236 53.9703 48.3995C53.8068 48.563 53.585 48.6549 53.3538 48.6549H37.8184C37.3651 48.6549 34.8892 48.96 34.8892 50.2938C34.894 50.4127 34.8744 50.5313 34.8316 50.6423C34.7889 50.7533 34.7238 50.8544 34.6405 50.9393C34.5572 51.0243 34.4574 51.0913 34.3473 51.1362C34.2371 51.1811 34.1189 51.203 34 51.2005Z" fill="#000DFF"/>
<path d="M33.9998 50.3723C33.8494 50.3732 33.7012 50.3351 33.5698 50.2618C33.4385 50.1884 33.3283 50.0824 33.2501 49.9538C33.2501 49.9538 31.5065 47.3385 29.5188 46.5277C27.2434 45.6559 18.5255 43.119 18.4383 43.0928C18.2497 43.0401 18.0844 42.9254 17.9689 42.7672C17.8535 42.6091 17.7946 42.4167 17.8019 42.221V14.0359C17.8001 13.9042 17.8282 13.7738 17.8841 13.6545C17.94 13.5352 18.0221 13.4301 18.1244 13.3472C18.226 13.2625 18.3455 13.2019 18.4738 13.1702C18.6022 13.1385 18.7361 13.1364 18.8655 13.1641C20.5044 13.4954 34.8716 16.5641 34.8716 22.2831V49.4831C34.8783 49.6799 34.8183 49.8732 34.7011 50.0315C34.584 50.1898 34.4167 50.3038 34.2265 50.3549C34.1522 50.3716 34.0758 50.3775 33.9998 50.3723ZM19.5803 41.5672C21.6639 42.1861 28.1501 44.0954 30.1552 44.8626C31.2848 45.3386 32.2986 46.0522 33.128 46.9549V22.2831C33.128 19.2754 25.2296 16.4246 19.5978 15.1344L19.5803 41.5672Z" fill="#000DFF"/>
<path d="M34.0001 50.3723C33.9192 50.385 33.8369 50.385 33.756 50.3723C33.5658 50.3212 33.3985 50.2072 33.2814 50.0489C33.1642 49.8906 33.1041 49.6973 33.1109 49.5005V22.2831C33.1283 16.5641 47.4955 13.4954 49.1345 13.1641C49.2638 13.1364 49.3977 13.1385 49.5261 13.1702C49.6544 13.2019 49.7739 13.2625 49.8755 13.3472C49.9778 13.4301 50.06 13.5352 50.1158 13.6545C50.1717 13.7738 50.1998 13.9042 50.198 14.0359V42.2385C50.2053 42.4341 50.1464 42.6265 50.031 42.7847C49.9155 42.9428 49.7502 43.0575 49.5616 43.1102C49.4657 43.1102 40.7565 45.6733 38.4811 46.5451C36.4498 47.3123 34.7673 49.9451 34.7498 49.9713C34.6695 50.0966 34.5584 50.1992 34.4272 50.2694C34.2959 50.3396 34.1489 50.375 34.0001 50.3723ZM48.4196 15.1344C42.7878 16.4246 34.8719 19.2754 34.8719 22.2831V46.9549C35.6962 46.0543 36.704 45.3408 37.8273 44.8626C39.8324 44.0954 46.3186 42.1861 48.4021 41.5672L48.4196 15.1344Z" fill="#000DFF"/>
</svg>
