<svg width="68" height="68" viewBox="0 0 68 68" fill="none" xmlns="http://www.w3.org/2000/svg">
<path d="M34.0699 49.2128C31.0448 49.2128 28.6038 47.1031 28.6212 44.5662C28.6212 44.3188 28.7195 44.0815 28.8944 43.9065C29.0694 43.7316 29.3066 43.6333 29.554 43.6333C29.8022 43.6356 30.0395 43.7358 30.2142 43.9122C30.3889 44.0885 30.4869 44.3267 30.4869 44.5749C30.4869 46.0918 32.091 47.3297 34.0874 47.3472C35.0335 47.366 35.9571 47.0581 36.7028 46.4754C37.0084 46.2675 37.2586 45.9881 37.4315 45.6614C37.6044 45.3347 37.6948 44.9707 37.6948 44.601C37.6948 44.2314 37.6044 43.8674 37.4315 43.5407C37.2586 43.214 37.0084 42.9345 36.7028 42.7267C35.9545 42.149 35.0326 41.8417 34.0874 41.8549C32.712 41.8588 31.3757 41.398 30.2951 40.5472C29.7741 40.1622 29.3507 39.6603 29.059 39.0819C28.7672 38.5035 28.6152 37.8647 28.6152 37.2169C28.6152 36.5691 28.7672 35.9303 29.059 35.352C29.3507 34.7736 29.7741 34.2717 30.2951 33.8867C31.3783 33.0331 32.7262 32.5859 34.1048 32.6226C37.1299 32.6226 39.5797 34.7323 39.5622 37.2779C39.56 37.5246 39.461 37.7606 39.2865 37.935C39.1121 38.1095 38.8761 38.2085 38.6294 38.2108C38.5069 38.2096 38.3858 38.1844 38.2731 38.1364C38.1604 38.0885 38.0582 38.0188 37.9724 37.9314C37.8866 37.844 37.8188 37.7405 37.773 37.6269C37.7272 37.5133 37.7042 37.3917 37.7053 37.2692C37.7053 35.7523 36.1012 34.5056 34.1048 34.4969C33.1586 34.4774 32.2347 34.7854 31.4894 35.3687C31.1855 35.5779 30.9371 35.8578 30.7654 36.1843C30.5938 36.5108 30.5041 36.8742 30.5041 37.2431C30.5041 37.612 30.5938 37.9753 30.7654 38.3019C30.9371 38.6284 31.1855 38.9083 31.4894 39.1174C32.2377 39.6951 33.1596 40.0024 34.1048 39.9892C35.481 39.9805 36.8188 40.4418 37.8971 41.2969C38.4134 41.6862 38.8314 42.191 39.1175 42.7708C39.4037 43.3506 39.5501 43.9894 39.545 44.636C39.5399 45.2826 39.3835 45.919 39.0882 46.4942C38.793 47.0695 38.3672 47.5676 37.8448 47.9487C36.7632 48.7802 35.4342 49.2253 34.0699 49.2128Z" fill="#000DFF"/>
<path d="M34.1394 34.4969C33.8919 34.4924 33.6559 34.3915 33.4817 34.2156C33.3075 34.0398 33.2088 33.8029 33.2065 33.5554V31.1928C33.2111 30.9476 33.3111 30.7139 33.4853 30.5413C33.6595 30.3688 33.8942 30.271 34.1394 30.2687C34.3876 30.271 34.6248 30.3712 34.7995 30.5476C34.9742 30.7239 35.0722 30.9621 35.0722 31.2103V33.5641C35.0699 33.8108 34.9709 34.0467 34.7965 34.2212C34.622 34.3956 34.3861 34.4947 34.1394 34.4969Z" fill="#000DFF"/>
<path d="M33.9998 51.5754C33.7623 51.5577 33.5404 51.4508 33.3786 51.2761C33.2169 51.1014 33.1273 50.8719 33.128 50.6338V48.2713C33.1268 48.1481 33.1504 48.026 33.1975 47.9121C33.2446 47.7983 33.3142 47.6952 33.4021 47.6089C33.49 47.5226 33.5945 47.455 33.7091 47.41C33.8238 47.365 33.9464 47.3437 34.0695 47.3472C34.1924 47.3472 34.314 47.3716 34.4272 47.4192C34.5405 47.4667 34.6432 47.5363 34.7292 47.624C34.8152 47.7116 34.8829 47.8156 34.9283 47.9297C34.9737 48.0439 34.9959 48.1659 34.9936 48.2887V50.6426C34.9939 50.7704 34.9679 50.8969 34.9173 51.0142C34.8666 51.1316 34.7924 51.2372 34.6992 51.3247C34.606 51.4122 34.4958 51.4796 34.3755 51.5227C34.2552 51.5658 34.1273 51.5837 33.9998 51.5754Z" fill="#000DFF"/>
<path d="M34.0001 58.2446C23.0329 58.2446 15.6139 56.379 11.9611 52.7087C11.1174 51.8834 10.4552 50.8911 10.0169 49.7952C9.57852 48.6994 9.37369 47.5241 9.41547 46.3446V46.2051C9.41547 43.8862 9.73804 39.6928 11.8565 37.5744C12.1616 37.2605 12.5016 36.9292 12.8503 36.5892C14.727 34.9033 16.3874 32.9911 17.7934 30.8964C19.1147 28.4985 20.9738 26.4395 23.2247 24.881C25.2821 23.5995 32.518 23.6518 34.0001 23.6692C35.4821 23.6867 42.718 23.6082 44.7755 24.9072C47.0264 26.4657 48.8855 28.5247 50.2068 30.9226C51.6128 33.0172 53.2731 34.9294 55.1498 36.6154L56.1524 37.6005C58.2709 39.719 58.5847 43.9123 58.5847 46.2313V46.3446C58.6286 47.5244 58.4248 48.7003 57.9864 49.7965C57.5479 50.8926 56.8845 51.8847 56.0391 52.7087C52.3862 56.379 44.9673 58.2446 34.0001 58.2446ZM33.1283 25.5349C29.798 25.5349 25.2821 25.8051 24.2796 26.4764C22.2733 27.8792 20.6175 29.7259 19.4411 31.8728C17.9607 34.1186 16.2033 36.1689 14.2103 37.9754L13.2339 38.9431C11.9873 40.1026 11.2811 42.8313 11.2811 46.2051V46.3185C11.2239 47.2659 11.3736 48.2144 11.7199 49.0981C12.0661 49.9818 12.6006 50.7796 13.2862 51.4359C15.5442 53.7113 20.9755 56.4226 34.0001 56.4226C47.0247 56.4226 52.456 53.6677 54.7227 51.4359C55.3966 50.7859 55.9235 49.9991 56.2678 49.1284C56.6122 48.2577 56.766 47.3233 56.7191 46.3882V46.2051C56.7191 42.8051 56.0129 40.1026 54.8273 38.8908L53.8421 37.9231C51.8489 36.1169 50.0914 34.0665 48.6114 31.8205C47.4349 29.6736 45.7792 27.8269 43.7729 26.4241C42.6309 25.6918 37.3914 25.439 34.0262 25.4913H33.1283V25.5349Z" fill="#000DFF"/>
<path d="M13.5651 38.1585C13.4195 38.1588 13.2759 38.1251 13.1457 38.06C13.0155 37.9949 12.9024 37.9002 12.8153 37.7836C12.0917 36.8159 12.4143 33.1805 12.8153 30.2949C13.7394 23.5036 19.0574 21.3677 22.5794 19.9467C26.7379 18.3077 33.6948 18.1595 33.9999 18.1508C34.3051 18.1421 41.2707 18.2728 45.4379 19.9467C48.9251 21.3677 54.2779 23.5036 55.202 30.2949C55.603 33.1805 55.9169 36.8159 55.202 37.7836C55.0621 37.9756 54.8543 38.107 54.6209 38.151C54.3874 38.195 54.146 38.1482 53.9459 38.0204C53.7457 37.8925 53.6018 37.693 53.5437 37.4627C53.4855 37.2325 53.5174 36.9886 53.6328 36.781C53.6851 36.6154 54.0164 35.3513 53.3625 30.5477C52.6389 25.2646 49.0035 23.4077 44.7492 21.6815C40.8871 20.1297 34.0523 20.0513 33.9999 20.0513C33.9476 20.0513 27.1215 20.1646 23.2769 21.7077C18.9876 23.4513 15.4307 25.2908 14.6635 30.5738C14.0097 35.3774 14.341 36.6764 14.3933 36.8072C14.5002 37.0031 14.5326 37.231 14.4845 37.449C14.4365 37.6669 14.3112 37.8601 14.1317 37.9928C13.9679 38.1123 13.7675 38.1708 13.5651 38.1585Z" fill="#000DFF"/>
<path d="M30.077 16.7559C29.3873 16.7559 28.7131 16.5514 28.1397 16.1682C27.5662 15.785 27.1192 15.2404 26.8553 14.6032C26.5914 13.966 26.5223 13.2649 26.6569 12.5884C26.7914 11.912 27.1235 11.2906 27.6112 10.8029C28.0989 10.3152 28.7203 9.9831 29.3967 9.84855C30.0732 9.71399 30.7743 9.78305 31.4115 10.047C32.0487 10.3109 32.5933 10.7579 32.9765 11.3313C33.3597 11.9048 33.5642 12.579 33.5642 13.2687C33.5642 14.1936 33.1968 15.0806 32.5428 15.7345C31.8889 16.3885 31.0019 16.7559 30.077 16.7559ZM30.077 11.621C29.7525 11.621 29.4353 11.7174 29.1656 11.8979C28.8958 12.0783 28.6858 12.3348 28.562 12.6348C28.4382 12.9348 28.4063 13.2648 28.4702 13.583C28.5342 13.9011 28.6911 14.1932 28.9212 14.422C29.1513 14.6509 29.4442 14.8063 29.7627 14.8685C30.0812 14.9308 30.411 14.8971 30.7103 14.7717C31.0096 14.6463 31.265 14.4349 31.444 14.1642C31.6231 13.8935 31.7177 13.5758 31.716 13.2513C31.716 13.0365 31.6736 12.8238 31.5911 12.6254C31.5086 12.427 31.3877 12.2469 31.2354 12.0954C31.0831 11.9439 30.9024 11.824 30.7036 11.7426C30.5048 11.6612 30.2918 11.6199 30.077 11.621Z" fill="#000DFF"/>
<path d="M37.9232 16.7559C37.2335 16.7559 36.5593 16.5514 35.9858 16.1682C35.4124 15.785 34.9654 15.2404 34.7015 14.6032C34.4375 13.966 34.3685 13.2649 34.503 12.5884C34.6376 11.912 34.9697 11.2906 35.4574 10.8029C35.9451 10.3152 36.5665 9.9831 37.2429 9.84855C37.9193 9.71399 38.6205 9.78305 39.2577 10.047C39.8949 10.3109 40.4395 10.7579 40.8227 11.3313C41.2059 11.9048 41.4104 12.579 41.4104 13.2687C41.4104 14.1936 41.043 15.0806 40.389 15.7345C39.7351 16.3885 38.8481 16.7559 37.9232 16.7559ZM37.9232 11.621C37.5983 11.6193 37.2802 11.7142 37.0094 11.8936C36.7385 12.073 36.5271 12.3289 36.402 12.6288C36.2768 12.9286 36.2437 13.2589 36.3066 13.5776C36.3696 13.8963 36.5259 14.1892 36.7556 14.4189C36.9853 14.6486 37.2782 14.8049 37.5969 14.8679C37.9156 14.9308 38.2459 14.8977 38.5457 14.7725C38.8456 14.6474 39.1015 14.436 39.2809 14.1651C39.4603 13.8943 39.5552 13.5762 39.5535 13.2513C39.5512 12.8196 39.3787 12.4063 39.0735 12.101C38.7682 11.7958 38.3549 11.6233 37.9232 11.621Z" fill="#000DFF"/>
<path d="M24.9332 21.1497C24.7245 21.1485 24.5221 21.078 24.3578 20.9492C24.1626 20.7977 24.0355 20.5748 24.0045 20.3297C23.9734 20.0845 24.0409 19.837 24.1922 19.6415L27.9496 14.8205C28.1022 14.6251 28.3262 14.4984 28.5722 14.4681C28.8183 14.4379 29.0663 14.5066 29.2617 14.6592C29.457 14.8118 29.5838 15.0358 29.614 15.2819C29.6443 15.5279 29.5755 15.7759 29.4229 15.9713L25.6655 20.7836C25.5793 20.8963 25.4686 20.9879 25.3417 21.0513C25.2148 21.1148 25.0751 21.1484 24.9332 21.1497Z" fill="#000DFF"/>
<path d="M43.0665 21.1497C42.9254 21.1495 42.7861 21.1171 42.6593 21.0552C42.5324 20.9933 42.4213 20.9034 42.3342 20.7923L38.5855 15.98C38.5094 15.8838 38.4529 15.7736 38.4194 15.6556C38.3858 15.5376 38.3759 15.4142 38.39 15.2924C38.4042 15.1705 38.4422 15.0527 38.5019 14.9456C38.5617 14.8384 38.6419 14.7441 38.7381 14.668C38.8342 14.5918 38.9444 14.5354 39.0624 14.5018C39.1804 14.4683 39.3038 14.4583 39.4257 14.4725C39.5475 14.4867 39.6654 14.5247 39.7725 14.5844C39.8796 14.6441 39.974 14.7243 40.0501 14.8205L43.8075 19.6328C43.9124 19.7719 43.9765 19.9373 43.993 20.1106C44.0094 20.284 43.9775 20.4585 43.9007 20.6147C43.8239 20.771 43.7053 20.903 43.558 20.9959C43.4108 21.0888 43.2406 21.139 43.0665 21.141V21.1497Z" fill="#000DFF"/>
</svg>
