<svg width="131" height="116" viewBox="0 0 131 116" fill="none" xmlns="http://www.w3.org/2000/svg">
<g opacity="0.26">
<mask id="mask0" mask-type="alpha" maskUnits="userSpaceOnUse" x="0" y="0" width="11" height="11">
<path d="M5.20529 10.7045C8.0801 10.7045 10.4106 8.37075 10.4106 5.49199C10.4106 2.61323 8.0801 0.279541 5.20529 0.279541C2.33049 0.279541 0 2.61323 0 5.49199C0 8.37075 2.33049 10.7045 5.20529 10.7045Z" fill="url(#paint0_linear)"/>
</mask>
<g mask="url(#mask0)">
<path d="M5.20529 10.7045C8.0801 10.7045 10.4106 8.37075 10.4106 5.49199C10.4106 2.61323 8.0801 0.279541 5.20529 0.279541C2.33049 0.279541 0 2.61323 0 5.49199C0 8.37075 2.33049 10.7045 5.20529 10.7045Z" fill="#FAFBFE"/>
</g>
<mask id="mask1" mask-type="alpha" maskUnits="userSpaceOnUse" x="30" y="0" width="11" height="11">
<path d="M35.3525 10.7045C38.2273 10.7045 40.5578 8.37075 40.5578 5.49199C40.5578 2.61323 38.2273 0.279541 35.3525 0.279541C32.4777 0.279541 30.1472 2.61323 30.1472 5.49199C30.1472 8.37075 32.4777 10.7045 35.3525 10.7045Z" fill="url(#paint1_linear)"/>
</mask>
<g mask="url(#mask1)">
<path d="M35.3525 10.7045C38.2273 10.7045 40.5578 8.37075 40.5578 5.49199C40.5578 2.61323 38.2273 0.279541 35.3525 0.279541C32.4777 0.279541 30.1472 2.61323 30.1472 5.49199C30.1472 8.37075 32.4777 10.7045 35.3525 10.7045Z" fill="#FAFBFE"/>
</g>
<mask id="mask2" mask-type="alpha" maskUnits="userSpaceOnUse" x="60" y="0" width="11" height="11">
<path d="M65.5 10.7045C68.3748 10.7045 70.7053 8.37075 70.7053 5.49199C70.7053 2.61323 68.3748 0.279541 65.5 0.279541C62.6252 0.279541 60.2947 2.61323 60.2947 5.49199C60.2947 8.37075 62.6252 10.7045 65.5 10.7045Z" fill="url(#paint2_linear)"/>
</mask>
<g mask="url(#mask2)">
<path d="M65.5 10.7045C68.3748 10.7045 70.7053 8.37075 70.7053 5.49199C70.7053 2.61323 68.3748 0.279541 65.5 0.279541C62.6252 0.279541 60.2947 2.61323 60.2947 5.49199C60.2947 8.37075 62.6252 10.7045 65.5 10.7045Z" fill="#FAFBFE"/>
</g>
<mask id="mask3" mask-type="alpha" maskUnits="userSpaceOnUse" x="90" y="0" width="11" height="11">
<path d="M95.6474 10.7045C98.5223 10.7045 100.853 8.37075 100.853 5.49199C100.853 2.61323 98.5223 0.279541 95.6474 0.279541C92.7726 0.279541 90.4421 2.61323 90.4421 5.49199C90.4421 8.37075 92.7726 10.7045 95.6474 10.7045Z" fill="url(#paint3_linear)"/>
</mask>
<g mask="url(#mask3)">
<path d="M95.6474 10.7045C98.5223 10.7045 100.853 8.37075 100.853 5.49199C100.853 2.61323 98.5223 0.279541 95.6474 0.279541C92.7726 0.279541 90.4421 2.61323 90.4421 5.49199C90.4421 8.37075 92.7726 10.7045 95.6474 10.7045Z" fill="#FAFBFE"/>
</g>
<mask id="mask4" mask-type="alpha" maskUnits="userSpaceOnUse" x="120" y="0" width="11" height="11">
<path d="M125.795 10.7045C128.669 10.7045 131 8.37075 131 5.49199C131 2.61323 128.669 0.279541 125.795 0.279541C122.92 0.279541 120.589 2.61323 120.589 5.49199C120.589 8.37075 122.92 10.7045 125.795 10.7045Z" fill="url(#paint4_linear)"/>
</mask>
<g mask="url(#mask4)">
<path d="M125.795 10.7045C128.669 10.7045 131 8.37075 131 5.49199C131 2.61323 128.669 0.279541 125.795 0.279541C122.92 0.279541 120.589 2.61323 120.589 5.49199C120.589 8.37075 122.92 10.7045 125.795 10.7045Z" fill="#FAFBFE"/>
</g>
<mask id="mask5" mask-type="alpha" maskUnits="userSpaceOnUse" x="0" y="26" width="11" height="11">
<path d="M5.20529 36.8753C8.0801 36.8753 10.4106 34.5416 10.4106 31.6629C10.4106 28.7841 8.0801 26.4504 5.20529 26.4504C2.33049 26.4504 0 28.7841 0 31.6629C0 34.5416 2.33049 36.8753 5.20529 36.8753Z" fill="url(#paint5_linear)"/>
</mask>
<g mask="url(#mask5)">
<path d="M5.20529 36.8753C8.0801 36.8753 10.4106 34.5416 10.4106 31.6629C10.4106 28.7841 8.0801 26.4504 5.20529 26.4504C2.33049 26.4504 0 28.7841 0 31.6629C0 34.5416 2.33049 36.8753 5.20529 36.8753Z" fill="#FAFBFE"/>
</g>
<mask id="mask6" mask-type="alpha" maskUnits="userSpaceOnUse" x="30" y="26" width="11" height="11">
<path d="M35.3525 36.8753C38.2273 36.8753 40.5578 34.5416 40.5578 31.6629C40.5578 28.7841 38.2273 26.4504 35.3525 26.4504C32.4777 26.4504 30.1472 28.7841 30.1472 31.6629C30.1472 34.5416 32.4777 36.8753 35.3525 36.8753Z" fill="url(#paint6_linear)"/>
</mask>
<g mask="url(#mask6)">
<path d="M35.3525 36.8753C38.2273 36.8753 40.5578 34.5416 40.5578 31.6629C40.5578 28.7841 38.2273 26.4504 35.3525 26.4504C32.4777 26.4504 30.1472 28.7841 30.1472 31.6629C30.1472 34.5416 32.4777 36.8753 35.3525 36.8753Z" fill="#FAFBFE"/>
</g>
<mask id="mask7" mask-type="alpha" maskUnits="userSpaceOnUse" x="60" y="26" width="11" height="11">
<path d="M65.5 36.8753C68.3748 36.8753 70.7053 34.5416 70.7053 31.6629C70.7053 28.7841 68.3748 26.4504 65.5 26.4504C62.6252 26.4504 60.2947 28.7841 60.2947 31.6629C60.2947 34.5416 62.6252 36.8753 65.5 36.8753Z" fill="url(#paint7_linear)"/>
</mask>
<g mask="url(#mask7)">
<path d="M65.5 36.8753C68.3748 36.8753 70.7053 34.5416 70.7053 31.6629C70.7053 28.7841 68.3748 26.4504 65.5 26.4504C62.6252 26.4504 60.2947 28.7841 60.2947 31.6629C60.2947 34.5416 62.6252 36.8753 65.5 36.8753Z" fill="#FAFBFE"/>
</g>
<mask id="mask8" mask-type="alpha" maskUnits="userSpaceOnUse" x="90" y="26" width="11" height="11">
<path d="M95.6474 36.8753C98.5223 36.8753 100.853 34.5416 100.853 31.6629C100.853 28.7841 98.5223 26.4504 95.6474 26.4504C92.7726 26.4504 90.4421 28.7841 90.4421 31.6629C90.4421 34.5416 92.7726 36.8753 95.6474 36.8753Z" fill="url(#paint8_linear)"/>
</mask>
<g mask="url(#mask8)">
<path d="M95.6474 36.8753C98.5223 36.8753 100.853 34.5416 100.853 31.6629C100.853 28.7841 98.5223 26.4504 95.6474 26.4504C92.7726 26.4504 90.4421 28.7841 90.4421 31.6629C90.4421 34.5416 92.7726 36.8753 95.6474 36.8753Z" fill="#FAFBFE"/>
</g>
<mask id="mask9" mask-type="alpha" maskUnits="userSpaceOnUse" x="120" y="26" width="11" height="11">
<path d="M125.795 36.8753C128.669 36.8753 131 34.5416 131 31.6629C131 28.7841 128.669 26.4504 125.795 26.4504C122.92 26.4504 120.589 28.7841 120.589 31.6629C120.589 34.5416 122.92 36.8753 125.795 36.8753Z" fill="url(#paint9_linear)"/>
</mask>
<g mask="url(#mask9)">
<path d="M125.795 36.8753C128.669 36.8753 131 34.5416 131 31.6629C131 28.7841 128.669 26.4504 125.795 26.4504C122.92 26.4504 120.589 28.7841 120.589 31.6629C120.589 34.5416 122.92 36.8753 125.795 36.8753Z" fill="#FAFBFE"/>
</g>
<mask id="mask10" mask-type="alpha" maskUnits="userSpaceOnUse" x="0" y="52" width="11" height="11">
<path d="M5.20529 62.9921C8.0801 62.9921 10.4106 60.6584 10.4106 57.7796C10.4106 54.9008 8.0801 52.5671 5.20529 52.5671C2.33049 52.5671 0 54.9008 0 57.7796C0 60.6584 2.33049 62.9921 5.20529 62.9921Z" fill="url(#paint10_linear)"/>
</mask>
<g mask="url(#mask10)">
<path d="M5.20529 62.9921C8.0801 62.9921 10.4106 60.6584 10.4106 57.7796C10.4106 54.9008 8.0801 52.5671 5.20529 52.5671C2.33049 52.5671 0 54.9008 0 57.7796C0 60.6584 2.33049 62.9921 5.20529 62.9921Z" fill="#FAFBFE"/>
</g>
<mask id="mask11" mask-type="alpha" maskUnits="userSpaceOnUse" x="30" y="52" width="11" height="11">
<path d="M35.3525 62.9921C38.2273 62.9921 40.5578 60.6584 40.5578 57.7796C40.5578 54.9008 38.2273 52.5671 35.3525 52.5671C32.4777 52.5671 30.1472 54.9008 30.1472 57.7796C30.1472 60.6584 32.4777 62.9921 35.3525 62.9921Z" fill="url(#paint11_linear)"/>
</mask>
<g mask="url(#mask11)">
<path d="M35.3525 62.9921C38.2273 62.9921 40.5578 60.6584 40.5578 57.7796C40.5578 54.9008 38.2273 52.5671 35.3525 52.5671C32.4777 52.5671 30.1472 54.9008 30.1472 57.7796C30.1472 60.6584 32.4777 62.9921 35.3525 62.9921Z" fill="#FAFBFE"/>
</g>
<mask id="mask12" mask-type="alpha" maskUnits="userSpaceOnUse" x="60" y="52" width="11" height="11">
<path d="M65.5 62.9921C68.3748 62.9921 70.7053 60.6584 70.7053 57.7796C70.7053 54.9008 68.3748 52.5671 65.5 52.5671C62.6252 52.5671 60.2947 54.9008 60.2947 57.7796C60.2947 60.6584 62.6252 62.9921 65.5 62.9921Z" fill="url(#paint12_linear)"/>
</mask>
<g mask="url(#mask12)">
<path d="M65.5 62.9921C68.3748 62.9921 70.7053 60.6584 70.7053 57.7796C70.7053 54.9008 68.3748 52.5671 65.5 52.5671C62.6252 52.5671 60.2947 54.9008 60.2947 57.7796C60.2947 60.6584 62.6252 62.9921 65.5 62.9921Z" fill="#FAFBFE"/>
</g>
<mask id="mask13" mask-type="alpha" maskUnits="userSpaceOnUse" x="90" y="52" width="11" height="11">
<path d="M95.6474 62.9921C98.5223 62.9921 100.853 60.6584 100.853 57.7796C100.853 54.9008 98.5223 52.5671 95.6474 52.5671C92.7726 52.5671 90.4421 54.9008 90.4421 57.7796C90.4421 60.6584 92.7726 62.9921 95.6474 62.9921Z" fill="url(#paint13_linear)"/>
</mask>
<g mask="url(#mask13)">
<path d="M95.6474 62.9921C98.5223 62.9921 100.853 60.6584 100.853 57.7796C100.853 54.9008 98.5223 52.5671 95.6474 52.5671C92.7726 52.5671 90.4421 54.9008 90.4421 57.7796C90.4421 60.6584 92.7726 62.9921 95.6474 62.9921Z" fill="#FAFBFE"/>
</g>
<mask id="mask14" mask-type="alpha" maskUnits="userSpaceOnUse" x="120" y="52" width="11" height="11">
<path d="M125.795 62.9921C128.669 62.9921 131 60.6584 131 57.7796C131 54.9008 128.669 52.5671 125.795 52.5671C122.92 52.5671 120.589 54.9008 120.589 57.7796C120.589 60.6584 122.92 62.9921 125.795 62.9921Z" fill="url(#paint14_linear)"/>
</mask>
<g mask="url(#mask14)">
<path d="M125.795 62.9921C128.669 62.9921 131 60.6584 131 57.7796C131 54.9008 128.669 52.5671 125.795 52.5671C122.92 52.5671 120.589 54.9008 120.589 57.7796C120.589 60.6584 122.92 62.9921 125.795 62.9921Z" fill="#FAFBFE"/>
</g>
<mask id="mask15" mask-type="alpha" maskUnits="userSpaceOnUse" x="0" y="78" width="11" height="12">
<path d="M5.20529 89.163C8.0801 89.163 10.4106 86.8292 10.4106 83.9505C10.4106 81.0717 8.0801 78.738 5.20529 78.738C2.33049 78.738 0 81.0717 0 83.9505C0 86.8292 2.33049 89.163 5.20529 89.163Z" fill="url(#paint15_linear)"/>
</mask>
<g mask="url(#mask15)">
<path d="M5.20529 89.163C8.0801 89.163 10.4106 86.8292 10.4106 83.9505C10.4106 81.0717 8.0801 78.738 5.20529 78.738C2.33049 78.738 0 81.0717 0 83.9505C0 86.8292 2.33049 89.163 5.20529 89.163Z" fill="#FAFBFE"/>
</g>
<mask id="mask16" mask-type="alpha" maskUnits="userSpaceOnUse" x="30" y="78" width="11" height="12">
<path d="M35.3525 89.163C38.2273 89.163 40.5578 86.8292 40.5578 83.9505C40.5578 81.0717 38.2273 78.738 35.3525 78.738C32.4777 78.738 30.1472 81.0717 30.1472 83.9505C30.1472 86.8292 32.4777 89.163 35.3525 89.163Z" fill="url(#paint16_linear)"/>
</mask>
<g mask="url(#mask16)">
<path d="M35.3525 89.163C38.2273 89.163 40.5578 86.8292 40.5578 83.9505C40.5578 81.0717 38.2273 78.738 35.3525 78.738C32.4777 78.738 30.1472 81.0717 30.1472 83.9505C30.1472 86.8292 32.4777 89.163 35.3525 89.163Z" fill="#FAFBFE"/>
</g>
<mask id="mask17" mask-type="alpha" maskUnits="userSpaceOnUse" x="60" y="78" width="11" height="12">
<path d="M65.5 89.163C68.3748 89.163 70.7053 86.8292 70.7053 83.9505C70.7053 81.0717 68.3748 78.738 65.5 78.738C62.6252 78.738 60.2947 81.0717 60.2947 83.9505C60.2947 86.8292 62.6252 89.163 65.5 89.163Z" fill="url(#paint17_linear)"/>
</mask>
<g mask="url(#mask17)">
<path d="M65.5 89.163C68.3748 89.163 70.7053 86.8292 70.7053 83.9505C70.7053 81.0717 68.3748 78.738 65.5 78.738C62.6252 78.738 60.2947 81.0717 60.2947 83.9505C60.2947 86.8292 62.6252 89.163 65.5 89.163Z" fill="#FAFBFE"/>
</g>
<mask id="mask18" mask-type="alpha" maskUnits="userSpaceOnUse" x="90" y="78" width="11" height="12">
<path d="M95.6474 89.163C98.5223 89.163 100.853 86.8292 100.853 83.9505C100.853 81.0717 98.5223 78.738 95.6474 78.738C92.7726 78.738 90.4421 81.0717 90.4421 83.9505C90.4421 86.8292 92.7726 89.163 95.6474 89.163Z" fill="url(#paint18_linear)"/>
</mask>
<g mask="url(#mask18)">
<path d="M95.6474 89.163C98.5223 89.163 100.853 86.8292 100.853 83.9505C100.853 81.0717 98.5223 78.738 95.6474 78.738C92.7726 78.738 90.4421 81.0717 90.4421 83.9505C90.4421 86.8292 92.7726 89.163 95.6474 89.163Z" fill="#FAFBFE"/>
</g>
<mask id="mask19" mask-type="alpha" maskUnits="userSpaceOnUse" x="120" y="78" width="11" height="12">
<path d="M125.795 89.163C128.669 89.163 131 86.8292 131 83.9505C131 81.0717 128.669 78.738 125.795 78.738C122.92 78.738 120.589 81.0717 120.589 83.9505C120.589 86.8292 122.92 89.163 125.795 89.163Z" fill="url(#paint19_linear)"/>
</mask>
<g mask="url(#mask19)">
<path d="M125.795 89.163C128.669 89.163 131 86.8292 131 83.9505C131 81.0717 128.669 78.738 125.795 78.738C122.92 78.738 120.589 81.0717 120.589 83.9505C120.589 86.8292 122.92 89.163 125.795 89.163Z" fill="#FAFBFE"/>
</g>
<mask id="mask20" mask-type="alpha" maskUnits="userSpaceOnUse" x="0" y="104" width="11" height="12">
<path d="M5.20529 115.279C8.0801 115.279 10.4106 112.946 10.4106 110.067C10.4106 107.188 8.0801 104.854 5.20529 104.854C2.33049 104.854 0 107.188 0 110.067C0 112.946 2.33049 115.279 5.20529 115.279Z" fill="url(#paint20_linear)"/>
</mask>
<g mask="url(#mask20)">
<path d="M5.20529 115.279C8.0801 115.279 10.4106 112.946 10.4106 110.067C10.4106 107.188 8.0801 104.854 5.20529 104.854C2.33049 104.854 0 107.188 0 110.067C0 112.946 2.33049 115.279 5.20529 115.279Z" fill="#FAFBFE"/>
</g>
<mask id="mask21" mask-type="alpha" maskUnits="userSpaceOnUse" x="30" y="104" width="11" height="12">
<path d="M35.3525 115.279C38.2273 115.279 40.5578 112.946 40.5578 110.067C40.5578 107.188 38.2273 104.854 35.3525 104.854C32.4777 104.854 30.1472 107.188 30.1472 110.067C30.1472 112.946 32.4777 115.279 35.3525 115.279Z" fill="url(#paint21_linear)"/>
</mask>
<g mask="url(#mask21)">
<path d="M35.3525 115.279C38.2273 115.279 40.5578 112.946 40.5578 110.067C40.5578 107.188 38.2273 104.854 35.3525 104.854C32.4777 104.854 30.1472 107.188 30.1472 110.067C30.1472 112.946 32.4777 115.279 35.3525 115.279Z" fill="#FAFBFE"/>
</g>
<mask id="mask22" mask-type="alpha" maskUnits="userSpaceOnUse" x="60" y="104" width="11" height="12">
<path d="M65.5 115.279C68.3748 115.279 70.7053 112.946 70.7053 110.067C70.7053 107.188 68.3748 104.854 65.5 104.854C62.6252 104.854 60.2947 107.188 60.2947 110.067C60.2947 112.946 62.6252 115.279 65.5 115.279Z" fill="url(#paint22_linear)"/>
</mask>
<g mask="url(#mask22)">
<path d="M65.5 115.279C68.3748 115.279 70.7053 112.946 70.7053 110.067C70.7053 107.188 68.3748 104.854 65.5 104.854C62.6252 104.854 60.2947 107.188 60.2947 110.067C60.2947 112.946 62.6252 115.279 65.5 115.279Z" fill="#FAFBFE"/>
</g>
<mask id="mask23" mask-type="alpha" maskUnits="userSpaceOnUse" x="90" y="104" width="11" height="12">
<path d="M95.6474 115.279C98.5223 115.279 100.853 112.946 100.853 110.067C100.853 107.188 98.5223 104.854 95.6474 104.854C92.7726 104.854 90.4421 107.188 90.4421 110.067C90.4421 112.946 92.7726 115.279 95.6474 115.279Z" fill="url(#paint23_linear)"/>
</mask>
<g mask="url(#mask23)">
<path d="M95.6474 115.279C98.5223 115.279 100.853 112.946 100.853 110.067C100.853 107.188 98.5223 104.854 95.6474 104.854C92.7726 104.854 90.4421 107.188 90.4421 110.067C90.4421 112.946 92.7726 115.279 95.6474 115.279Z" fill="#FAFBFE"/>
</g>
<mask id="mask24" mask-type="alpha" maskUnits="userSpaceOnUse" x="120" y="104" width="11" height="12">
<path d="M125.795 115.279C128.669 115.279 131 112.946 131 110.067C131 107.188 128.669 104.854 125.795 104.854C122.92 104.854 120.589 107.188 120.589 110.067C120.589 112.946 122.92 115.279 125.795 115.279Z" fill="url(#paint24_linear)"/>
</mask>
<g mask="url(#mask24)">
<path d="M125.795 115.279C128.669 115.279 131 112.946 131 110.067C131 107.188 128.669 104.854 125.795 104.854C122.92 104.854 120.589 107.188 120.589 110.067C120.589 112.946 122.92 115.279 125.795 115.279Z" fill="#FAFBFE"/>
</g>
</g>
<defs>
<linearGradient id="paint0_linear" x1="54.7532" y1="131.413" x2="-16.8801" y2="-50.1747" gradientUnits="userSpaceOnUse">
<stop stop-color="white"/>
<stop offset="1" stop-color="white"/>
</linearGradient>
<linearGradient id="paint1_linear" x1="84.9004" y1="131.413" x2="13.2672" y2="-50.1748" gradientUnits="userSpaceOnUse">
<stop stop-color="white"/>
<stop offset="1" stop-color="white"/>
</linearGradient>
<linearGradient id="paint2_linear" x1="115.048" y1="131.413" x2="43.4147" y2="-50.1748" gradientUnits="userSpaceOnUse">
<stop stop-color="white"/>
<stop offset="1" stop-color="white"/>
</linearGradient>
<linearGradient id="paint3_linear" x1="145.195" y1="131.413" x2="73.5621" y2="-50.1748" gradientUnits="userSpaceOnUse">
<stop stop-color="white"/>
<stop offset="1" stop-color="white"/>
</linearGradient>
<linearGradient id="paint4_linear" x1="175.343" y1="131.413" x2="103.709" y2="-50.1748" gradientUnits="userSpaceOnUse">
<stop stop-color="white"/>
<stop offset="1" stop-color="white"/>
</linearGradient>
<linearGradient id="paint5_linear" x1="54.7532" y1="157.583" x2="-16.8789" y2="-24.0038" gradientUnits="userSpaceOnUse">
<stop stop-color="white"/>
<stop offset="1" stop-color="white"/>
</linearGradient>
<linearGradient id="paint6_linear" x1="84.9004" y1="157.583" x2="13.2684" y2="-24.0039" gradientUnits="userSpaceOnUse">
<stop stop-color="white"/>
<stop offset="1" stop-color="white"/>
</linearGradient>
<linearGradient id="paint7_linear" x1="115.048" y1="157.583" x2="43.4159" y2="-24.0039" gradientUnits="userSpaceOnUse">
<stop stop-color="white"/>
<stop offset="1" stop-color="white"/>
</linearGradient>
<linearGradient id="paint8_linear" x1="145.195" y1="157.583" x2="73.5634" y2="-24.0039" gradientUnits="userSpaceOnUse">
<stop stop-color="white"/>
<stop offset="1" stop-color="white"/>
</linearGradient>
<linearGradient id="paint9_linear" x1="175.343" y1="157.583" x2="103.711" y2="-24.0039" gradientUnits="userSpaceOnUse">
<stop stop-color="white"/>
<stop offset="1" stop-color="white"/>
</linearGradient>
<linearGradient id="paint10_linear" x1="54.7532" y1="183.701" x2="-16.8801" y2="2.11289" gradientUnits="userSpaceOnUse">
<stop stop-color="white"/>
<stop offset="1" stop-color="white"/>
</linearGradient>
<linearGradient id="paint11_linear" x1="84.9004" y1="183.701" x2="13.2672" y2="2.11283" gradientUnits="userSpaceOnUse">
<stop stop-color="white"/>
<stop offset="1" stop-color="white"/>
</linearGradient>
<linearGradient id="paint12_linear" x1="115.048" y1="183.701" x2="43.4147" y2="2.11283" gradientUnits="userSpaceOnUse">
<stop stop-color="white"/>
<stop offset="1" stop-color="white"/>
</linearGradient>
<linearGradient id="paint13_linear" x1="145.195" y1="183.701" x2="73.5621" y2="2.11283" gradientUnits="userSpaceOnUse">
<stop stop-color="white"/>
<stop offset="1" stop-color="white"/>
</linearGradient>
<linearGradient id="paint14_linear" x1="175.343" y1="183.701" x2="103.709" y2="2.11283" gradientUnits="userSpaceOnUse">
<stop stop-color="white"/>
<stop offset="1" stop-color="white"/>
</linearGradient>
<linearGradient id="paint15_linear" x1="54.7532" y1="209.872" x2="-16.8801" y2="28.2838" gradientUnits="userSpaceOnUse">
<stop stop-color="white"/>
<stop offset="1" stop-color="white"/>
</linearGradient>
<linearGradient id="paint16_linear" x1="84.9004" y1="209.872" x2="13.2672" y2="28.2837" gradientUnits="userSpaceOnUse">
<stop stop-color="white"/>
<stop offset="1" stop-color="white"/>
</linearGradient>
<linearGradient id="paint17_linear" x1="115.048" y1="209.872" x2="43.4147" y2="28.2837" gradientUnits="userSpaceOnUse">
<stop stop-color="white"/>
<stop offset="1" stop-color="white"/>
</linearGradient>
<linearGradient id="paint18_linear" x1="145.195" y1="209.872" x2="73.5621" y2="28.2837" gradientUnits="userSpaceOnUse">
<stop stop-color="white"/>
<stop offset="1" stop-color="white"/>
</linearGradient>
<linearGradient id="paint19_linear" x1="175.343" y1="209.872" x2="103.709" y2="28.2837" gradientUnits="userSpaceOnUse">
<stop stop-color="white"/>
<stop offset="1" stop-color="white"/>
</linearGradient>
<linearGradient id="paint20_linear" x1="54.7532" y1="235.988" x2="-16.8801" y2="54.4002" gradientUnits="userSpaceOnUse">
<stop stop-color="white"/>
<stop offset="1" stop-color="white"/>
</linearGradient>
<linearGradient id="paint21_linear" x1="84.9004" y1="235.988" x2="13.2672" y2="54.4002" gradientUnits="userSpaceOnUse">
<stop stop-color="white"/>
<stop offset="1" stop-color="white"/>
</linearGradient>
<linearGradient id="paint22_linear" x1="115.048" y1="235.988" x2="43.4147" y2="54.4002" gradientUnits="userSpaceOnUse">
<stop stop-color="white"/>
<stop offset="1" stop-color="white"/>
</linearGradient>
<linearGradient id="paint23_linear" x1="145.195" y1="235.988" x2="73.5621" y2="54.4002" gradientUnits="userSpaceOnUse">
<stop stop-color="white"/>
<stop offset="1" stop-color="white"/>
</linearGradient>
<linearGradient id="paint24_linear" x1="175.343" y1="235.988" x2="103.709" y2="54.4002" gradientUnits="userSpaceOnUse">
<stop stop-color="white"/>
<stop offset="1" stop-color="white"/>
</linearGradient>
</defs>
</svg>
