<svg width="68" height="68" viewBox="0 0 68 68" fill="none" xmlns="http://www.w3.org/2000/svg">
<path d="M55.1149 47.5651C54.8768 47.5651 54.6484 47.4705 54.48 47.3021C54.3116 47.1337 54.217 46.9053 54.217 46.6672C54.217 46.429 54.3116 46.2006 54.48 46.0322C54.6484 45.8638 54.8768 45.7692 55.1149 45.7692C56.3858 45.7793 57.626 45.3783 58.6503 44.6259C59.6747 43.8736 60.4283 42.8103 60.7989 41.5945C61.1695 40.3788 61.1372 39.0759 60.7067 37.88C60.2763 36.6842 59.4707 35.6596 58.4103 34.959C58.2405 34.8515 58.1131 34.6887 58.0495 34.498C57.986 34.3074 57.9902 34.1007 58.0616 33.9128C58.4063 32.9384 58.5832 31.9126 58.5847 30.879C58.5808 28.5303 57.6844 26.2708 56.077 24.5582C54.4697 22.8457 52.2715 21.808 49.9278 21.6554C49.7641 21.647 49.6062 21.5926 49.472 21.4986C49.3379 21.4045 49.233 21.2746 49.1693 21.1236C48.1678 18.8573 46.5253 16.9334 44.444 15.5888C42.3629 14.2442 39.9338 13.5376 37.4561 13.5562C34.9784 13.5747 32.5603 14.3175 30.4994 15.6931C28.4386 17.0686 26.825 19.0169 25.8575 21.298C25.7798 21.4901 25.6362 21.6482 25.4525 21.7441C25.2688 21.84 25.0569 21.8672 24.8549 21.821C24.1947 21.6892 23.5231 21.622 22.8498 21.6205C21.5409 21.6171 20.2442 21.8718 19.0338 22.37C17.8235 22.8683 16.7232 23.6003 15.7961 24.5242C14.8689 25.4481 14.1331 26.5458 13.6306 27.7544C13.1281 28.963 12.8689 30.2588 12.8677 31.5677C12.87 32.0526 12.9109 32.5365 12.9898 33.0149C13.0083 33.1347 13.0015 33.2571 12.97 33.3742C12.9385 33.4913 12.8829 33.6005 12.8067 33.6949C12.7317 33.7831 12.6399 33.8556 12.5367 33.908C12.4334 33.9604 12.3207 33.9917 12.2052 34C10.7051 34.1637 9.32527 34.8974 8.35073 36.0494C7.3762 37.2015 6.88146 38.6839 6.96876 40.1903C7.05606 41.6968 7.71871 43.1121 8.8198 44.1439C9.92089 45.1757 11.3763 45.7451 12.8852 45.7344C13.1233 45.7344 13.3517 45.829 13.5201 45.9974C13.6885 46.1658 13.7831 46.3942 13.7831 46.6323C13.7831 46.8705 13.6885 47.0989 13.5201 47.2673C13.3517 47.4357 13.1233 47.5303 12.8852 47.5303C11.0065 47.5213 9.19633 46.8242 7.79702 45.5706C6.39771 44.3171 5.50635 42.5942 5.29158 40.7279C5.07681 38.8615 5.55353 36.9812 6.63154 35.4426C7.70955 33.904 9.31409 32.8139 11.1416 32.3785C11.1416 32.0821 11.1416 31.8031 11.1416 31.5067C11.1599 28.4156 12.3953 25.4561 14.5803 23.2695C16.7653 21.0829 19.7238 19.8452 22.8149 19.8246C23.3662 19.823 23.9168 19.8609 24.4626 19.938C25.6535 17.4928 27.5078 15.4317 29.8139 13.9898C32.12 12.5479 34.7849 11.7833 37.5047 11.7833C40.2244 11.7833 42.8894 12.5479 45.1955 13.9898C47.5015 15.4317 49.3558 17.4928 50.5467 19.938C53.2349 20.249 55.7162 21.5339 57.5216 23.5497C59.327 25.5656 60.3317 28.1729 60.3457 30.879C60.3449 31.8903 60.204 32.8966 59.9272 33.8692C61.173 34.8648 62.0783 36.223 62.518 37.7559C62.9577 39.2888 62.9099 40.9204 62.3813 42.4249C61.8526 43.9294 60.8693 45.2323 59.5674 46.1533C58.2656 47.0742 56.7096 47.5676 55.1149 47.5651Z" fill="#000DFF"/>
<path d="M35.203 49.4046H18.7609C18.2754 49.4046 17.8097 49.2118 17.4664 48.8684C17.1231 48.5251 16.9302 48.0594 16.9302 47.5739V33.3636C16.9302 32.8781 17.1231 32.4124 17.4664 32.0691C17.8097 31.7257 18.2754 31.5328 18.7609 31.5328H40.6168C41.1024 31.5328 41.5681 31.7257 41.9114 32.0691C42.2547 32.4124 42.4476 32.8781 42.4476 33.3636V37.4175C42.4476 37.6556 42.353 37.884 42.1846 38.0524C42.0162 38.2208 41.7878 38.3154 41.5497 38.3154C41.3115 38.3154 41.0831 38.2208 40.9147 38.0524C40.7463 37.884 40.6517 37.6556 40.6517 37.4175V33.3636H18.7609V47.6087H35.2379C35.476 47.6087 35.7044 47.7033 35.8728 47.8717C36.0412 48.0401 36.1358 48.2685 36.1358 48.5067C36.1358 48.7448 36.0412 48.9732 35.8728 49.1416C35.7044 49.31 35.476 49.4046 35.2379 49.4046H35.203Z" fill="#000DFF"/>
<path d="M35.203 46.0657H17.8281C17.59 46.0657 17.3616 45.9711 17.1932 45.8027C17.0248 45.6343 16.9302 45.4059 16.9302 45.1677C16.9302 44.9296 17.0248 44.7012 17.1932 44.5328C17.3616 44.3644 17.59 44.2698 17.8281 44.2698H35.203C35.4411 44.2698 35.6695 44.3644 35.8379 44.5328C36.0063 44.7012 36.1009 44.9296 36.1009 45.1677C36.1009 45.4059 36.0063 45.6343 35.8379 45.8027C35.6695 45.9711 35.4411 46.0657 35.203 46.0657Z" fill="#000DFF"/>
<path d="M30.3472 36.6154H29.0308C28.7926 36.6154 28.5642 36.5207 28.3958 36.3523C28.2274 36.184 28.1328 35.9556 28.1328 35.7174C28.1328 35.4793 28.2274 35.2509 28.3958 35.0825C28.5642 34.9141 28.7926 34.8195 29.0308 34.8195H30.3472C30.5853 34.8195 30.8137 34.9141 30.9821 35.0825C31.1505 35.2509 31.2451 35.4793 31.2451 35.7174C31.2451 35.9556 31.1505 36.184 30.9821 36.3523C30.8137 36.5207 30.5853 36.6154 30.3472 36.6154Z" fill="#000DFF"/>
<path d="M41.9419 41.9072H40.6255C40.3873 41.9072 40.1589 41.8126 39.9905 41.6442C39.8221 41.4758 39.7275 41.2474 39.7275 41.0092C39.7275 40.7711 39.8221 40.5427 39.9905 40.3743C40.1589 40.2059 40.3873 40.1113 40.6255 40.1113H41.9419C42.18 40.1113 42.4084 40.2059 42.5768 40.3743C42.7452 40.5427 42.8398 40.7711 42.8398 41.0092C42.8398 41.2474 42.7452 41.4758 42.5768 41.6442C42.4084 41.8126 42.18 41.9072 41.9419 41.9072Z" fill="#000DFF"/>
<path d="M34.7585 56.2395H24.5672C24.336 56.2395 24.1142 56.1477 23.9507 55.9842C23.7873 55.8207 23.6954 55.5989 23.6954 55.3677V52.4995C23.6924 52.2918 23.7636 52.0899 23.8963 51.93C24.0289 51.7702 24.2143 51.663 24.419 51.6277L27.1913 51.0872H27.3569V48.5067C27.3569 48.2755 27.4488 48.0537 27.6123 47.8902C27.7758 47.7267 27.9975 47.6349 28.2287 47.6349H31.1493C31.3805 47.6349 31.6022 47.7267 31.7657 47.8902C31.9292 48.0537 32.021 48.2755 32.021 48.5067L32.0646 51.061H32.239L34.9067 51.6016C35.1114 51.6368 35.2967 51.7441 35.4294 51.9039C35.5621 52.0637 35.6333 52.2657 35.6303 52.4733V55.3154C35.6374 55.4342 35.6202 55.5532 35.5796 55.6651C35.5389 55.777 35.4759 55.8794 35.3942 55.966C35.3125 56.0525 35.214 56.1215 35.1046 56.1685C34.9953 56.2156 34.8775 56.2397 34.7585 56.2395ZM25.4651 54.4436H33.8605V53.2318L31.9949 52.8657H31.1231C30.8919 52.8657 30.6701 52.7738 30.5066 52.6103C30.3432 52.4468 30.2513 52.2251 30.2513 51.9939V49.4046H29.1267V51.9677C29.1267 52.1989 29.0348 52.4207 28.8713 52.5842C28.7079 52.7477 28.4861 52.8395 28.2549 52.8395H27.4441L25.4913 53.2144L25.4651 54.4436Z" fill="#000DFF"/>
<path d="M49.4395 56.2395H45.1677C44.7623 56.2395 44.3733 56.079 44.0858 55.7932C43.7983 55.5073 43.6356 55.1193 43.6333 54.7138V43.3805C43.6322 43.1787 43.6711 42.9787 43.7478 42.792C43.8245 42.6053 43.9374 42.4357 44.0802 42.293C44.2229 42.1503 44.3925 42.0373 44.5791 41.9606C44.7658 41.8839 44.9659 41.845 45.1677 41.8462H49.4395C49.6406 41.845 49.8399 41.8836 50.026 41.9598C50.2121 42.0359 50.3813 42.1481 50.5239 42.2899C50.6665 42.4317 50.7797 42.6003 50.8569 42.7859C50.9341 42.9716 50.9738 43.1707 50.9738 43.3718V54.7051C50.9738 55.1121 50.8122 55.5023 50.5244 55.7901C50.2367 56.0778 49.8464 56.2395 49.4395 56.2395ZM45.4379 54.4436H49.1779V43.6595H45.4379V54.4436Z" fill="#000DFF"/>
<path d="M46.4231 56.2395H36.1359C35.6511 56.2372 35.1868 56.0436 34.8439 55.7007C34.5011 55.3579 34.3075 54.8936 34.3052 54.4087V38.359C34.3075 37.8741 34.5011 37.4098 34.8439 37.067C35.1868 36.7241 35.6511 36.5305 36.1359 36.5282H46.4231C46.9095 36.5282 47.376 36.7208 47.7208 37.0639C48.0655 37.407 48.2603 37.8726 48.2626 38.359V42.7702C48.2626 43.0096 48.1676 43.2391 47.9983 43.4083C47.8291 43.5775 47.5996 43.6726 47.3603 43.6726C47.121 43.6726 46.8915 43.5775 46.7223 43.4083C46.5531 43.2391 46.458 43.0096 46.458 42.7702V38.359H36.1359V54.4523H46.458C46.6962 54.4523 46.9245 54.5469 47.0929 54.7153C47.2613 54.8837 47.3559 55.1121 47.3559 55.3503C47.3559 55.5884 47.2613 55.8168 47.0929 55.9852C46.9245 56.1536 46.6962 56.2482 46.458 56.2482L46.4231 56.2395Z" fill="#000DFF"/>
</svg>
