<svg width="68" height="68" viewBox="0 0 68 68" fill="none" xmlns="http://www.w3.org/2000/svg">
<path d="M58.1138 33.7821C57.9124 32.1322 57.3505 30.5468 56.468 29.1384C55.5855 27.7299 54.404 26.5327 53.0072 25.6318C51.6105 24.7308 50.0327 24.1481 48.3856 23.925C46.7385 23.7018 45.0625 23.8437 43.4764 24.3405C42.9485 21.4624 41.4324 18.8588 39.1898 16.9792C36.9473 15.0995 34.1189 14.0616 31.1928 14.0446C28.1492 14.0336 25.2075 15.141 22.9269 17.1565C20.6462 19.172 19.1854 21.9551 18.822 24.9769C16.8384 24.4729 14.7702 24.3964 12.7547 24.7526C10.7393 25.1087 8.82255 25.8893 7.13172 27.0426C5.4409 28.1959 4.01462 29.6955 2.94749 31.4419C1.88036 33.1884 1.19677 35.1418 0.942063 37.1726C0.687359 39.2034 0.867362 41.2651 1.47013 43.2211C2.0729 45.177 3.08466 46.9824 4.4383 48.5175C5.79194 50.0526 7.45651 51.2824 9.32161 52.1252C11.1867 52.9681 13.2097 53.4047 15.2564 53.4062H19.9118V51.6626H15.2564C11.9509 51.5759 8.80999 50.2019 6.50273 47.8334C4.19546 45.4648 2.90429 42.2889 2.90429 38.9823C2.90429 35.6757 4.19546 32.4998 6.50273 30.1313C8.80999 27.7627 11.9509 26.3888 15.2564 26.3021C16.6417 26.3024 18.0174 26.5322 19.3277 26.9821C19.4581 27.0265 19.5972 27.0394 19.7336 27.0197C19.87 27 19.9998 26.9483 20.1123 26.8687C20.2278 26.7886 20.3222 26.6818 20.3874 26.5573C20.4527 26.4328 20.4869 26.2944 20.4872 26.1539C20.6257 23.4578 21.7769 20.9134 23.7105 19.0295C25.6441 17.1456 28.2176 16.0611 30.9164 15.9928C33.6151 15.9245 36.2402 16.8775 38.2666 18.6612C40.293 20.4448 41.5714 22.9278 41.8461 25.6134C41.8576 25.7526 41.9024 25.8871 41.9768 26.0055C42.0511 26.1238 42.1528 26.2226 42.2733 26.2934C42.3919 26.3643 42.5257 26.4061 42.6637 26.4152C42.8016 26.4243 42.9397 26.4005 43.0667 26.3457C44.4871 25.74 46.0329 25.4864 47.5724 25.6063C49.1119 25.7262 50.5998 26.2161 51.9093 27.0344C53.2189 27.8527 54.3115 28.9751 55.0943 30.3062C55.877 31.6373 56.3267 33.1378 56.4051 34.68C56.4123 34.797 56.4431 34.9114 56.4955 35.0162C56.5479 35.1211 56.621 35.2143 56.7102 35.2903C56.8803 35.4408 57.1024 35.519 57.3292 35.5082C58.06 35.5083 58.7874 35.608 59.4913 35.8046H63.3097C61.8104 34.6411 60.0052 33.9384 58.1138 33.7821Z" fill="#000DFF"/>
<path d="M24.8723 39.8759C25.2614 39.3815 25.7621 38.9863 26.3334 38.7226C26.9046 38.4589 27.5302 38.3343 28.1589 38.3589C29.3006 38.2854 30.4288 38.6397 31.3235 39.3528C32.1218 40.1411 32.6 41.197 32.6661 42.3169C32.681 42.4479 32.7433 42.569 32.8412 42.6573C32.9392 42.7456 33.066 42.7951 33.1979 42.7964H33.782C33.8574 42.7974 33.9321 42.7824 34.0013 42.7523C34.0704 42.7223 34.1324 42.6779 34.183 42.622C34.2335 42.5654 34.2719 42.4991 34.2959 42.4272C34.3199 42.3552 34.3289 42.2791 34.3225 42.2036C34.2495 40.6522 33.5776 39.1896 32.4482 38.1236C31.2477 37.127 29.7172 36.6168 28.1589 36.6938C26.9907 36.6779 25.8439 37.0086 24.8635 37.6441C23.8918 38.3056 23.1295 39.2312 22.6666 40.3118C22.1518 41.521 21.8964 42.8248 21.9169 44.139V46.5713C21.8946 47.8771 22.1502 49.1727 22.6666 50.3723C23.1447 51.432 23.9084 52.3376 24.8723 52.9877C25.8463 53.614 26.9836 53.9385 28.1415 53.9205C29.7072 54.0021 31.2458 53.4882 32.4482 52.482C33.5663 51.4025 34.2305 49.937 34.3051 48.3846C34.3108 48.3104 34.3014 48.2358 34.2774 48.1654C34.2534 48.095 34.2154 48.0301 34.1656 47.9748C34.1154 47.9179 34.0537 47.8721 33.9846 47.8406C33.9155 47.809 33.8405 47.7924 33.7646 47.7918H33.1805C33.0463 47.7931 32.9172 47.8434 32.8176 47.9334C32.7181 48.0233 32.6548 48.1466 32.6399 48.28C32.6283 49.4153 32.1786 50.5022 31.3846 51.3138C30.4684 52.0309 29.3198 52.3848 28.1589 52.3077C27.3085 52.327 26.4734 52.0801 25.7702 51.6015C25.0565 51.0962 24.4979 50.4018 24.1574 49.5964C23.7566 48.6178 23.5608 47.5675 23.582 46.5102V44.1825C23.494 42.6401 23.9507 41.1158 24.8723 39.8759Z" fill="#000DFF"/>
<path d="M44.8713 46.6323C45.7063 46.3451 46.4436 45.8285 46.9985 45.1415C47.7385 44.2544 48.1373 43.1321 48.1231 41.9769C48.1521 41.2762 48.0247 40.5778 47.7503 39.9324C47.4759 39.2871 47.0612 38.7108 46.5364 38.2456C45.3716 37.3032 43.9007 36.8222 42.4041 36.8944H37.3826C37.312 36.8932 37.2419 36.9061 37.1764 36.9323C37.1108 36.9585 37.0512 36.9975 37.0009 37.047C36.9506 37.0965 36.9106 37.1555 36.8833 37.2206C36.8561 37.2857 36.842 37.3556 36.842 37.4261V53.1795C36.842 53.2501 36.8561 53.3199 36.8833 53.385C36.9106 53.4501 36.9506 53.5091 37.0009 53.5586C37.0512 53.6081 37.1108 53.6471 37.1764 53.6733C37.2419 53.6995 37.312 53.7124 37.3826 53.7113H37.9667C38.0372 53.7124 38.1073 53.6995 38.1728 53.6733C38.2384 53.6471 38.298 53.6081 38.3483 53.5586C38.3987 53.5091 38.4386 53.4501 38.4659 53.385C38.4931 53.3199 38.5072 53.2501 38.5072 53.1795V46.9897H43.1364L47.1641 53.4846C47.2143 53.5615 47.2828 53.6249 47.3634 53.669C47.444 53.7131 47.5343 53.7366 47.6261 53.7374H48.2451C48.3208 53.7438 48.3969 53.7338 48.4684 53.7083C48.5399 53.6827 48.6051 53.6421 48.6597 53.5893C48.7142 53.5364 48.7567 53.4725 48.7845 53.4018C48.8122 53.3311 48.8245 53.2553 48.8205 53.1795V53.0226C48.8213 52.92 48.7909 52.8197 48.7333 52.7349L44.8713 46.6323ZM38.5072 38.5508H42.3605C43.4541 38.4838 44.5349 38.8152 45.4031 39.4836C45.7579 39.7908 46.0374 40.1754 46.2203 40.6076C46.4032 41.0399 46.4845 41.5083 46.4579 41.9769C46.4745 42.4214 46.3977 42.8643 46.2326 43.2773C46.0674 43.6902 45.8175 44.0639 45.499 44.3744C45.1585 44.6988 44.7559 44.951 44.3154 45.1158C43.875 45.2806 43.4057 45.3546 42.9359 45.3333H38.5072V38.5508Z" fill="#000DFF"/>
<path d="M66.64 36.8944H65.7682C65.6642 36.8945 65.5625 36.9252 65.4757 36.9825C65.389 37.0398 65.3209 37.1213 65.28 37.217L59.282 50.9913L53.2841 37.217C53.2426 37.12 53.1732 37.0375 53.0847 36.9801C52.9962 36.9226 52.8927 36.8928 52.7872 36.8944H51.959C51.8884 36.8932 51.8183 36.9061 51.7528 36.9323C51.6873 36.9585 51.6276 36.9975 51.5773 37.047C51.527 37.0965 51.487 37.1555 51.4598 37.2206C51.4325 37.2857 51.4184 37.3556 51.4185 37.4262V53.1795C51.4184 53.2501 51.4325 53.32 51.4598 53.3851C51.487 53.4502 51.527 53.5092 51.5773 53.5587C51.6276 53.6082 51.6873 53.6472 51.7528 53.6734C51.8183 53.6996 51.8884 53.7125 51.959 53.7113H52.5431C52.6136 53.7125 52.6837 53.6996 52.7493 53.6734C52.8148 53.6472 52.8744 53.6082 52.9248 53.5587C52.9751 53.5092 53.015 53.4502 53.0423 53.3851C53.0696 53.32 53.0836 53.2501 53.0836 53.1795V40.9744L58.5585 53.4411C58.6 53.538 58.6694 53.6205 58.7578 53.6779C58.8463 53.7354 58.9499 53.7652 59.0554 53.7636H59.5174C59.6229 53.7652 59.7265 53.7354 59.815 53.6779C59.9035 53.6205 59.9729 53.538 60.0144 53.4411L65.5241 40.8959V53.1795C65.5241 53.2501 65.5381 53.32 65.5654 53.3851C65.5927 53.4502 65.6326 53.5092 65.6829 53.5587C65.7332 53.6082 65.7929 53.6472 65.8584 53.6734C65.924 53.6996 65.994 53.7125 66.0646 53.7113H66.6487C66.7193 53.7125 66.7894 53.6996 66.8549 53.6734C66.9204 53.6472 66.9801 53.6082 67.0304 53.5587C67.0807 53.5092 67.1207 53.4502 67.1479 53.3851C67.1752 53.32 67.1892 53.2501 67.1892 53.1795V37.4262C67.1893 37.3549 67.175 37.2842 67.1471 37.2186C67.1193 37.1529 67.0786 37.0935 67.0274 37.0438C66.9761 36.9942 66.9154 36.9554 66.8489 36.9298C66.7823 36.9041 66.7113 36.8921 66.64 36.8944Z" fill="#000DFF"/>
</svg>
