<svg width="68" height="68" viewBox="0 0 68 68" fill="none" xmlns="http://www.w3.org/2000/svg">
<path d="M53.8943 49.3087H25.8138C25.6417 49.3023 25.4753 49.2451 25.3356 49.1443C25.196 49.0434 25.0893 48.9034 25.0292 48.742L18.6389 29.022C18.6383 28.8375 18.6962 28.6576 18.8043 28.5081C18.9124 28.3586 19.0651 28.2472 19.2405 28.1901C19.4159 28.1329 19.605 28.1328 19.7804 28.1899C19.9559 28.247 20.1087 28.3582 20.2169 28.5077L26.4241 47.6872H53.2841L58.7066 29.641H49.3958C49.1762 29.641 48.9655 29.5538 48.8102 29.3984C48.6549 29.2431 48.5676 29.0325 48.5676 28.8128C48.5676 28.5932 48.6549 28.3825 48.8102 28.2272C48.9655 28.0719 49.1762 27.9846 49.3958 27.9846H59.8574C59.9862 27.9832 60.1135 28.0125 60.2287 28.0702C60.3439 28.1278 60.4438 28.212 60.52 28.3159C60.5999 28.418 60.6537 28.5381 60.6765 28.6658C60.6993 28.7934 60.6904 28.9247 60.6507 29.0482L54.6964 48.7246C54.6379 48.892 54.5298 49.0375 54.3865 49.1419C54.2432 49.2462 54.0715 49.3044 53.8943 49.3087Z" fill="#000DFF"/>
<path d="M32.5704 29.641H19.4237C19.2426 29.6412 19.0666 29.5815 18.9231 29.4711C18.7795 29.3607 18.6766 29.2058 18.6304 29.0308L16.015 19.5282H8.17757C7.95792 19.5282 7.74726 19.4409 7.59194 19.2856C7.43662 19.1303 7.34937 18.9197 7.34937 18.7C7.34937 18.4803 7.43662 18.2697 7.59194 18.1144C7.74726 17.9591 7.95792 17.8718 8.17757 17.8718H16.6165C16.7954 17.8797 16.9676 17.9425 17.1095 18.0517C17.2515 18.1609 17.3563 18.3112 17.4099 18.4821L20.0253 27.9846H32.5704C32.7448 28.0419 32.8967 28.1529 33.0043 28.3016C33.112 28.4503 33.17 28.6292 33.17 28.8128C33.17 28.9964 33.112 29.1753 33.0043 29.324C32.8967 29.4728 32.7448 29.5837 32.5704 29.641Z" fill="#000DFF"/>
<path d="M28.1153 58.4887C27.3946 58.4887 26.69 58.275 26.0907 57.8746C25.4915 57.4741 25.0244 56.905 24.7486 56.2391C24.4728 55.5733 24.4006 54.8406 24.5412 54.1337C24.6818 53.4268 25.0289 52.7775 25.5385 52.2678C26.0482 51.7582 26.6975 51.4111 27.4044 51.2705C28.1113 51.1299 28.844 51.2021 29.5098 51.4779C30.1757 51.7537 30.7448 52.2208 31.1453 52.82C31.5457 53.4193 31.7594 54.1239 31.7594 54.8446C31.7594 55.8111 31.3755 56.738 30.6921 57.4214C30.0087 58.1048 29.0818 58.4887 28.1153 58.4887ZM28.1153 52.8656C27.7218 52.8656 27.3372 52.9824 27.0101 53.2012C26.683 53.42 26.4283 53.731 26.2781 54.0947C26.1279 54.4584 26.0891 54.8585 26.1665 55.2443C26.2439 55.6301 26.434 55.9843 26.7129 56.2619C26.9918 56.5396 27.3467 56.7282 27.7329 56.8039C28.119 56.8796 28.519 56.839 28.882 56.6872C29.2451 56.5354 29.5549 56.2793 29.7723 55.9513C29.9896 55.6233 30.1047 55.2381 30.103 54.8446C30.103 54.584 30.0515 54.3259 29.9515 54.0853C29.8515 53.8446 29.705 53.626 29.5203 53.4422C29.3356 53.2583 29.1164 53.1127 28.8753 53.0138C28.6342 52.9148 28.3759 52.8645 28.1153 52.8656Z" fill="#000DFF"/>
<path d="M51.0872 58.4887C50.3665 58.4887 49.6619 58.275 49.0627 57.8746C48.4634 57.4741 47.9963 56.905 47.7205 56.2391C47.4447 55.5733 47.3725 54.8406 47.5131 54.1337C47.6537 53.4268 48.0008 52.7775 48.5105 52.2678C49.0201 51.7582 49.6694 51.4111 50.3763 51.2705C51.0832 51.1299 51.8159 51.2021 52.4818 51.4779C53.1476 51.7537 53.7168 52.2208 54.1172 52.82C54.5176 53.4193 54.7313 54.1239 54.7313 54.8446C54.7313 55.8111 54.3474 56.738 53.664 57.4214C52.9806 58.1048 52.0537 58.4887 51.0872 58.4887ZM51.0872 52.8656C50.6934 52.8639 50.3079 52.9792 49.9796 53.197C49.6514 53.4147 49.3953 53.7251 49.2438 54.0886C49.0923 54.4522 49.0522 54.8526 49.1286 55.2389C49.205 55.6253 49.3945 55.9803 49.673 56.2588C49.9515 56.5373 50.3065 56.7268 50.6929 56.8032C51.0793 56.8796 51.4796 56.8395 51.8432 56.688C52.2068 56.5365 52.5171 56.2804 52.7348 55.9522C52.9526 55.624 53.0679 55.2385 53.0662 54.8446C53.0639 54.3205 52.8547 53.8184 52.484 53.4478C52.1134 53.0772 51.6114 52.8679 51.0872 52.8656Z" fill="#000DFF"/>
<path d="M45.5599 38.9867C45.4508 38.9878 45.3426 38.9672 45.2416 38.926C45.1406 38.8848 45.0488 38.8238 44.9717 38.7467C44.8945 38.6695 44.8336 38.5778 44.7923 38.4768C44.7511 38.3758 44.7305 38.2675 44.7317 38.1585V20.3913C44.7422 20.175 44.8329 19.9705 44.986 19.8174C45.1391 19.6643 45.3436 19.5736 45.5599 19.5631H47.5999L40.7737 11.6036L33.9999 19.5631H36.0399C36.2637 19.5628 36.4791 19.6486 36.6414 19.8028C36.8037 19.957 36.9005 20.1677 36.9117 20.3913V38.1585C36.8544 38.3329 36.7434 38.4847 36.5947 38.5924C36.446 38.7001 36.2671 38.758 36.0835 38.758C35.8999 38.758 35.721 38.7001 35.5722 38.5924C35.4235 38.4847 35.3126 38.3329 35.2553 38.1585V21.2195H32.1604C32.0024 21.2158 31.8483 21.1693 31.7147 21.0848C31.5811 21.0004 31.473 20.8812 31.4019 20.74C31.3431 20.5969 31.3234 20.4408 31.3448 20.2876C31.3663 20.1344 31.4281 19.9896 31.524 19.8682L40.146 9.80769C40.2275 9.72196 40.3255 9.6537 40.4342 9.60705C40.5428 9.5604 40.6598 9.53635 40.7781 9.53635C40.8963 9.53635 41.0134 9.5604 41.122 9.60705C41.2307 9.6537 41.3287 9.72196 41.4101 9.80769L50.0235 19.8682C50.1309 19.9871 50.2011 20.1348 50.2255 20.2932C50.2498 20.4516 50.2272 20.6136 50.1604 20.7593C50.0936 20.9049 49.9856 21.0278 49.8497 21.1127C49.7138 21.1976 49.556 21.2408 49.3958 21.2369H46.3881V38.1585C46.3775 38.3747 46.2869 38.5793 46.1338 38.7324C45.9807 38.8854 45.7761 38.9761 45.5599 38.9867Z" fill="#000DFF"/>
</svg>
