<svg width="68" height="68" viewBox="0 0 68 68" fill="none" xmlns="http://www.w3.org/2000/svg">
<path d="M36.8247 64.1641C36.345 64.1626 35.8685 64.0861 35.4124 63.9374L13.8965 56.7974C13.139 56.5524 12.3155 56.6151 11.6037 56.9718L4.74268 60.3282C4.52997 60.4322 4.28463 60.4475 4.06064 60.3707C3.83666 60.2938 3.65237 60.1312 3.54832 59.9185C3.44428 59.7057 3.42899 59.4604 3.50584 59.2364C3.58268 59.0124 3.74535 58.8281 3.95807 58.7241L10.8104 55.3677C11.9462 54.8034 13.2586 54.7095 14.4632 55.1061L35.9704 62.2374C36.4869 62.3989 37.0405 62.3989 37.557 62.2374L38.5858 61.9585C39.2164 61.7797 39.8079 61.4839 40.3293 61.0867L62.0022 45.0282C62.2955 44.8117 62.5182 44.5132 62.6423 44.1704C62.7664 43.8275 62.7864 43.4557 62.6996 43.1015L62.4904 42.2733C62.4217 41.9953 62.2613 41.7485 62.0351 41.5729C61.8089 41.3973 61.5301 41.3032 61.2437 41.3056C61.1328 41.3033 61.0237 41.3337 60.9299 41.3928L40.3904 54.1036C40.2579 54.1801 40.1075 54.2204 39.9545 54.2204C39.8014 54.2204 39.6511 54.1801 39.5186 54.1036L32.1083 50.0323C32.0053 49.9751 31.9145 49.8981 31.8412 49.8058C31.768 49.7134 31.7136 49.6076 31.6812 49.4943C31.6488 49.3809 31.6391 49.2623 31.6525 49.1452C31.666 49.0281 31.7024 48.9148 31.7596 48.8118C31.8169 48.7087 31.8938 48.618 31.9861 48.5447C32.0785 48.4714 32.1843 48.417 32.2976 48.3846C32.411 48.3523 32.5296 48.3425 32.6467 48.356C32.7638 48.3694 32.8771 48.4058 32.9801 48.4631L39.9545 52.2902L59.9883 39.8759C60.3649 39.6412 60.8 39.5173 61.2437 39.5185C61.9297 39.5161 62.5965 39.7443 63.1372 40.1664C63.6779 40.5886 64.0611 41.1801 64.2252 41.8461L64.4345 42.6743C64.6064 43.3715 64.5692 44.1038 64.3273 44.7798C64.0854 45.4558 63.6496 46.0456 63.0745 46.4754L41.3755 62.5861C40.6791 63.1018 39.8927 63.4832 39.0565 63.7108L38.0365 63.9985C37.6423 64.1097 37.2344 64.1654 36.8247 64.1641Z" fill="#000DFF"/>
<path d="M32.5268 50.1631L27.4966 49.98C27.2654 49.98 27.0436 49.8882 26.8801 49.7247C26.7166 49.5612 26.6248 49.3394 26.6248 49.1082C26.6248 48.877 26.7166 48.6553 26.8801 48.4918C27.0436 48.3283 27.2654 48.2364 27.4966 48.2364L32.4833 48.4195L44.7843 48.2016C44.9629 48.2098 45.1414 48.1826 45.3096 48.1218C45.4777 48.0609 45.6322 47.9675 45.7642 47.8468C45.8962 47.7261 46.0031 47.5806 46.0788 47.4186C46.1545 47.2566 46.1975 47.0812 46.2053 46.9026L46.3186 45.6211C46.3316 45.339 46.2371 45.0626 46.0543 44.8474C45.8715 44.6322 45.6139 44.4944 45.3335 44.4616L21.6033 41.4103C21.1308 41.3512 20.6512 41.3989 20.1997 41.5498L6.38172 46.2575C6.26986 46.3011 6.1502 46.3212 6.03022 46.3164C5.91025 46.3116 5.79255 46.2821 5.68451 46.2297C5.57647 46.1774 5.48042 46.1032 5.40237 46.012C5.32432 45.9207 5.26596 45.8144 5.23095 45.6995C5.19013 45.5886 5.17226 45.4706 5.17844 45.3527C5.18462 45.2347 5.21471 45.1192 5.26689 45.0132C5.31907 44.9072 5.39225 44.8129 5.48199 44.7361C5.57172 44.6592 5.67614 44.6014 5.7889 44.5662L19.6068 39.8585C20.3109 39.6236 21.0585 39.5492 21.795 39.6405L45.5253 42.6482C46.2706 42.7381 46.9512 43.1157 47.4219 43.7004C47.8926 44.2852 48.1162 45.0307 48.0448 45.778L47.9489 47.077C47.882 47.8558 47.5285 48.5822 46.9567 49.1153C46.385 49.6484 45.6357 49.9503 44.854 49.9626L32.5268 50.1631Z" fill="#000DFF"/>
<path d="M44.4612 44.3046C44.23 44.3485 43.9908 44.2988 43.7963 44.1664C43.6017 44.034 43.4677 43.8297 43.4238 43.5985C43.3799 43.3672 43.4296 43.1281 43.562 42.9335C43.6944 42.7389 43.8987 42.605 44.13 42.561L53.3448 38.8995C54.0449 38.6557 54.8068 38.6557 55.5069 38.8995C56.2296 39.1543 56.8561 39.626 57.3007 40.2501C57.7454 40.8742 57.9866 41.6204 57.9915 42.3867V42.7179C57.9915 42.9492 57.8996 43.1709 57.7362 43.3344C57.5727 43.4979 57.3509 43.5897 57.1197 43.5897C56.8885 43.5897 56.6667 43.4979 56.5033 43.3344C56.3398 43.1709 56.2479 42.9492 56.2479 42.7179V42.4215C56.248 42.0157 56.1199 41.6202 55.882 41.2915C55.644 40.9627 55.3083 40.7175 54.9228 40.5908C54.6206 40.4865 54.2922 40.4865 53.99 40.5908L44.7925 44.2349C44.6877 44.2795 44.5752 44.3032 44.4612 44.3046Z" fill="#000DFF"/>
<path d="M35.0115 26.642H13.513C12.9511 26.642 12.4123 26.4188 12.015 26.0215C11.6177 25.6243 11.3945 25.0854 11.3945 24.5236V5.95434C11.3945 5.39249 11.6177 4.85365 12.015 4.45636C12.4123 4.05907 12.9511 3.83588 13.513 3.83588H42.0904C42.6523 3.83588 43.1911 4.05907 43.5884 4.45636C43.9857 4.85365 44.2089 5.39249 44.2089 5.95434V11.2461C44.2089 11.4843 44.1143 11.7127 43.9459 11.8811C43.7775 12.0495 43.5491 12.1441 43.3109 12.1441C43.0728 12.1441 42.8444 12.0495 42.676 11.8811C42.5076 11.7127 42.413 11.4843 42.413 11.2461V5.95434C42.413 5.86797 42.3793 5.785 42.3191 5.72312C42.2588 5.66123 42.1768 5.62533 42.0904 5.62306H13.513C13.4258 5.62526 13.3428 5.66088 13.2812 5.72253C13.2195 5.78419 13.1839 5.86717 13.1817 5.95434V24.5236C13.1839 24.6107 13.2195 24.6937 13.2812 24.7554C13.3428 24.817 13.4258 24.8526 13.513 24.8549H35.0115C35.2427 24.8549 35.4644 24.9467 35.6279 25.1102C35.7914 25.2737 35.8832 25.4954 35.8832 25.7266C35.8832 25.9579 35.7914 26.1796 35.6279 26.3431C35.4644 26.5066 35.2427 26.5984 35.0115 26.5984V26.642Z" fill="#000DFF"/>
<path d="M35.0115 22.2744H12.2925C12.0555 22.2744 11.8282 22.1802 11.6607 22.0126C11.4931 21.8451 11.3989 21.6178 11.3989 21.3808C11.3989 21.1438 11.4931 20.9165 11.6607 20.7489C11.8282 20.5813 12.0555 20.4872 12.2925 20.4872H35.0115C35.2485 20.4872 35.4758 20.5813 35.6434 20.7489C35.8109 20.9165 35.9051 21.1438 35.9051 21.3808C35.9051 21.6178 35.8109 21.8451 35.6434 22.0126C35.4758 22.1802 35.2485 22.2744 35.0115 22.2744Z" fill="#000DFF"/>
<path d="M28.6557 9.92976H26.9121C26.7948 9.92976 26.6786 9.90664 26.5702 9.86174C26.4618 9.81683 26.3633 9.75101 26.2803 9.66803C26.1973 9.58505 26.1315 9.48655 26.0866 9.37813C26.0417 9.26971 26.0186 9.15352 26.0186 9.03617C26.0186 8.91882 26.0417 8.80262 26.0866 8.69421C26.1315 8.58579 26.1973 8.48728 26.2803 8.4043C26.3633 8.32133 26.4618 8.25551 26.5702 8.2106C26.6786 8.16569 26.7948 8.14258 26.9121 8.14258H28.6557C28.7731 8.14258 28.8893 8.16569 28.9977 8.2106C29.1061 8.25551 29.2046 8.32133 29.2876 8.4043C29.3706 8.48728 29.4364 8.58579 29.4813 8.69421C29.5262 8.80262 29.5493 8.91882 29.5493 9.03617C29.5493 9.15352 29.5262 9.26971 29.4813 9.37813C29.4364 9.48655 29.3706 9.58505 29.2876 9.66803C29.2046 9.75101 29.1061 9.81683 28.9977 9.86174C28.8893 9.90664 28.7731 9.92976 28.6557 9.92976Z" fill="#000DFF"/>
<path d="M43.8164 16.8431H42.0728C41.8358 16.8431 41.6085 16.7489 41.4409 16.5814C41.2733 16.4138 41.1792 16.1865 41.1792 15.9495C41.1792 15.7125 41.2733 15.4852 41.4409 15.3176C41.6085 15.1501 41.8358 15.0559 42.0728 15.0559H43.8164C44.0534 15.0559 44.2807 15.1501 44.4482 15.3176C44.6158 15.4852 44.71 15.7125 44.71 15.9495C44.71 16.1865 44.6158 16.4138 44.4482 16.5814C44.2807 16.7489 44.0534 16.8431 43.8164 16.8431Z" fill="#000DFF"/>
<path d="M34.4272 35.578H21.0975C20.8663 35.578 20.6445 35.4861 20.481 35.3226C20.3175 35.1591 20.2257 34.9374 20.2257 34.7062V30.9662C20.2227 30.7585 20.2939 30.5565 20.4265 30.3967C20.5592 30.2369 20.7446 30.1297 20.9493 30.0944L24.5759 29.3969H24.7416H25.0206V25.7441C25.0206 25.5129 25.1124 25.2911 25.2759 25.1277C25.4394 24.9642 25.6611 24.8723 25.8923 24.8723H29.7108C29.942 24.8723 30.1638 24.9642 30.3273 25.1277C30.4908 25.2911 30.5826 25.5129 30.5826 25.7441V29.3708H30.9139H31.097L34.5841 30.0682C34.7872 30.1053 34.9706 30.2134 35.1015 30.373C35.2324 30.5326 35.3024 30.7336 35.299 30.94V34.6539C35.3062 34.7727 35.2889 34.8917 35.2483 35.0036C35.2077 35.1154 35.1446 35.2178 35.0629 35.3044C34.9813 35.391 34.8827 35.4599 34.7734 35.507C34.664 35.554 34.5462 35.5782 34.4272 35.578ZM21.9954 33.7908H33.5293V31.6985L30.8441 31.158H29.7108C29.4796 31.158 29.2579 31.0661 29.0944 30.9026C28.9309 30.7391 28.839 30.5174 28.839 30.2862V26.6421H26.7816V30.2687C26.7816 30.4999 26.6897 30.7217 26.5262 30.8852C26.3627 31.0487 26.141 31.1405 25.9098 31.1405H24.8026L21.9954 31.6898V33.7908Z" fill="#000DFF"/>
<path d="M53.6243 35.578H48.0361C47.5736 35.578 47.1302 35.3943 46.8032 35.0673C46.4762 34.7403 46.2925 34.2968 46.2925 33.8344V19.0139C46.2925 18.5514 46.4762 18.1079 46.8032 17.7809C47.1302 17.454 47.5736 17.2703 48.0361 17.2703H53.6243C54.0867 17.2703 54.5302 17.454 54.8572 17.7809C55.1842 18.1079 55.3679 18.5514 55.3679 19.0139V33.8344C55.3679 34.0633 55.3228 34.2901 55.2351 34.5016C55.1475 34.7132 55.0191 34.9054 54.8572 35.0673C54.6953 35.2292 54.5031 35.3576 54.2915 35.4452C54.08 35.5329 53.8533 35.578 53.6243 35.578ZM48.1058 33.7908H53.5545V19.1272H48.1058V33.7908Z" fill="#000DFF"/>
<path d="M49.6923 35.5779H36.2317C35.6699 35.5779 35.1311 35.3547 34.7338 34.9574C34.3365 34.5601 34.1133 34.0213 34.1133 33.4595V12.4666C34.1133 12.1888 34.1681 11.9138 34.2747 11.6573C34.3813 11.4007 34.5375 11.1678 34.7343 10.9717C34.9311 10.7757 35.1647 10.6205 35.4217 10.515C35.6787 10.4095 35.954 10.3557 36.2317 10.3569H49.6923C49.97 10.3557 50.2453 10.4095 50.5023 10.515C50.7593 10.6205 50.9929 10.7757 51.1897 10.9717C51.3865 11.1678 51.5427 11.4007 51.6493 11.6573C51.7559 11.9138 51.8107 12.1888 51.8107 12.4666V18.2292C51.8107 18.4662 51.7166 18.6935 51.549 18.8611C51.3814 19.0286 51.1541 19.1228 50.9171 19.1228C50.6801 19.1228 50.4528 19.0286 50.2853 18.8611C50.1177 18.6935 50.0235 18.4662 50.0235 18.2292V12.4666C50.0213 12.3803 49.9854 12.2983 49.9235 12.238C49.8616 12.1777 49.7786 12.144 49.6923 12.1441H36.2317C36.1469 12.1463 36.0661 12.181 36.0061 12.241C35.9461 12.301 35.9114 12.3818 35.9092 12.4666V33.4595C35.9091 33.5458 35.9429 33.6288 36.0031 33.6907C36.0634 33.7526 36.1454 33.7885 36.2317 33.7907H49.6923C49.9293 33.7907 50.1565 33.8849 50.3241 34.0525C50.4917 34.22 50.5858 34.4473 50.5858 34.6843C50.5858 34.9213 50.4917 35.1486 50.3241 35.3162C50.1565 35.4838 49.9293 35.5779 49.6923 35.5779Z" fill="#000DFF"/>
</svg>
