<svg width="68" height="68" viewBox="0 0 68 68" fill="none" xmlns="http://www.w3.org/2000/svg">
<path d="M34.2352 63.4144C34.0222 63.4164 33.8133 63.3566 33.6337 63.242C33.4542 63.1275 33.3118 62.9632 33.2239 62.7692C33.1139 62.5033 33.1135 62.2045 33.2229 61.9383C33.3324 61.672 33.5427 61.4599 33.808 61.3482C48.8203 54.9231 48.8203 35.6826 48.4716 30.5128C37.9578 33.1892 33.3547 26.1538 33.3111 26.058C33.1627 25.8141 33.116 25.5219 33.1808 25.2439C33.2456 24.966 33.4169 24.7246 33.6578 24.5716C33.8988 24.4186 34.1901 24.3662 34.4692 24.4257C34.7483 24.4852 34.993 24.6518 35.1506 24.8897C35.3162 25.1513 39.3352 31.1667 49.0993 28.0718C49.2446 28.0264 49.3982 28.0138 49.5489 28.0349C49.6997 28.056 49.8439 28.1103 49.9711 28.1939C50.1066 28.28 50.2214 28.3949 50.3073 28.5306C50.3932 28.6662 50.4481 28.8192 50.468 28.9785C50.468 29.24 53.3885 55.3241 34.5839 63.3185C34.4742 63.3708 34.3562 63.4032 34.2352 63.4144Z" fill="#000DFF"/>
<path d="M34.2267 63.4144C34.0825 63.4157 33.9398 63.386 33.8082 63.3272C15.0036 55.3328 17.8892 29.2487 17.9241 28.9872C17.9436 28.8288 17.9974 28.6765 18.0817 28.541C18.166 28.4055 18.2788 28.29 18.4123 28.2026C18.5467 28.1128 18.6999 28.0551 18.8601 28.0339C19.0204 28.0128 19.1833 28.0287 19.3364 28.0805C29.1964 31.2015 33.2851 24.9682 33.2851 24.9072C33.448 24.6841 33.6894 24.5312 33.9607 24.4794C34.2319 24.4275 34.5127 24.4806 34.7464 24.6278C34.98 24.7751 35.149 25.0056 35.2192 25.2727C35.2894 25.5398 35.2556 25.8236 35.1246 26.0667C35.1072 26.1538 30.5128 33.198 19.9903 30.5128C19.6938 35.6826 19.659 54.9231 34.6538 61.3221C34.8886 61.4165 35.0827 61.5904 35.2025 61.8133C35.3222 62.0362 35.36 62.2941 35.3091 62.542C35.2583 62.7899 35.1221 63.0121 34.9243 63.1699C34.7265 63.3277 34.4796 63.4111 34.2267 63.4056V63.4144Z" fill="#000DFF"/>
<path d="M34.872 57.8174C34.7651 57.8344 34.6562 57.8344 34.5494 57.8174C26.3458 55.2631 23.8786 45.2026 23.774 44.7405C23.7188 44.464 23.773 44.1768 23.9251 43.9394C24.0772 43.702 24.3154 43.5327 24.5897 43.4673C24.864 43.4018 25.1529 43.4452 25.3959 43.5884C25.6388 43.7315 25.8168 43.9632 25.8925 44.2349C25.8925 44.3308 28.1853 53.5195 35.1945 55.699C35.4349 55.7826 35.6385 55.9477 35.7699 56.1656C35.9013 56.3836 35.9522 56.6407 35.9139 56.8923C35.8756 57.1439 35.7504 57.3742 35.5601 57.5432C35.3698 57.7121 35.1263 57.8092 34.872 57.8174Z" fill="#000DFF"/>
<path d="M58.6022 46.3882H55.4637C55.1747 46.3882 54.8975 46.2734 54.6932 46.069C54.4888 45.8646 54.374 45.5875 54.374 45.2985C54.374 45.0094 54.4888 44.7323 54.6932 44.5279C54.8975 44.3235 55.1747 44.2087 55.4637 44.2087H58.6022C60.07 44.2105 61.4992 43.7391 62.678 42.8644C63.8567 41.9898 64.7221 40.7585 65.1458 39.3532C65.5696 37.9479 65.5291 36.4435 65.0303 35.063C64.5316 33.6826 63.6011 32.4997 62.377 31.6897C62.1774 31.5549 62.028 31.3577 61.9523 31.129C61.8766 30.9003 61.8788 30.653 61.9586 30.4256C62.5058 28.8638 62.6838 27.1965 62.4787 25.5544C62.2735 23.9123 61.6908 22.34 60.7761 20.9608C59.8615 19.5817 58.6398 18.4331 57.2069 17.6053C55.7739 16.7774 54.1687 16.2927 52.5171 16.1892C52.3186 16.1771 52.1273 16.1104 51.9643 15.9966C51.8012 15.8828 51.6728 15.7262 51.5929 15.5441C50.4301 12.9107 48.5221 10.6751 46.1041 9.11284C43.6861 7.55062 40.8639 6.73005 37.9852 6.7523C35.1066 6.77454 32.2973 7.63862 29.9038 9.23802C27.5103 10.8374 25.637 13.1022 24.515 15.7533C24.4132 15.9816 24.2373 16.1687 24.0157 16.2842C23.7941 16.3998 23.5399 16.437 23.2945 16.3897C21.6139 16.0456 19.8777 16.0798 18.212 16.4899C16.5462 16.9 14.9926 17.6757 13.6639 18.7608C12.3351 19.8458 11.2645 21.213 10.5297 22.7632C9.79487 24.3133 9.41428 26.0076 9.41551 27.7231C9.43269 28.2816 9.49096 28.8382 9.58987 29.3882C9.63132 29.6783 9.55608 29.973 9.38064 30.2077C9.19798 30.4388 8.9319 30.5891 8.63961 30.6261C6.89148 30.8013 5.2787 31.6453 4.13844 32.9819C2.99817 34.3185 2.41868 36.0441 2.52113 37.798C2.62357 39.5519 3.4 41.1983 4.68812 42.393C5.97624 43.5877 7.67631 44.2383 9.43295 44.2087H12.5714C12.8604 44.2087 13.1376 44.3235 13.342 44.5279C13.5463 44.7323 13.6612 45.0094 13.6612 45.2985C13.6612 45.5875 13.5463 45.8646 13.342 46.069C13.1376 46.2734 12.8604 46.3882 12.5714 46.3882H9.43295C7.22407 46.4064 5.08584 45.6106 3.42638 44.1526C1.76693 42.6947 0.702465 40.6767 0.436177 38.4838C0.169888 36.291 0.720422 34.0769 1.9827 32.2641C3.24497 30.4513 5.13058 29.1669 7.27961 28.6559C7.27961 28.3246 7.27961 28.0108 7.27961 27.6969C7.28152 25.738 7.70254 23.8022 8.5144 22.0195C9.32627 20.2368 10.5102 18.6484 11.9866 17.361C13.4631 16.0737 15.1979 15.1171 17.0746 14.5556C18.9513 13.9941 20.9264 13.8407 22.8673 14.1056C24.2594 11.2544 26.4244 8.85146 29.1156 7.17062C31.8067 5.48977 34.9159 4.59859 38.0888 4.59859C41.2618 4.59859 44.371 5.48977 47.0621 7.17062C49.7533 8.85146 51.9183 11.2544 53.3104 14.1056C56.4538 14.4727 59.3534 15.9799 61.4598 18.3418C63.5663 20.7038 64.7332 23.7563 64.7396 26.921C64.7392 28.1004 64.5749 29.274 64.2514 30.4082C65.7045 31.5767 66.759 33.1675 67.2695 34.9609C67.7799 36.7543 67.7211 38.6619 67.1011 40.4205C66.4811 42.1791 65.3305 43.7018 63.8082 44.7785C62.2859 45.8553 60.4668 46.433 58.6022 46.4318V46.3882Z" fill="#000DFF"/>
</svg>
