<svg width="68" height="68" viewBox="0 0 68 68" fill="none" xmlns="http://www.w3.org/2000/svg">
<path d="M36.2928 55.5507C35.8841 55.5516 35.4779 55.4868 35.0897 55.3589L17.6538 49.5615C17.079 49.3732 16.4533 49.417 15.9103 49.6836L10.3395 52.421C10.2324 52.4737 10.1161 52.5047 9.99703 52.5124C9.87798 52.5201 9.75858 52.5043 9.64565 52.4658C9.53272 52.4274 9.42847 52.367 9.33885 52.2883C9.24923 52.2096 9.176 52.1139 9.12334 52.0069C9.07067 51.8998 9.03961 51.7835 9.03192 51.6644C9.02423 51.5454 9.04006 51.426 9.07851 51.313C9.11697 51.2001 9.17729 51.0959 9.25603 51.0062C9.33477 50.9166 9.4304 50.8434 9.53744 50.7907L15.0995 48.062C16.0637 47.5803 17.1791 47.4989 18.2031 47.8353L35.639 53.6328C36.0218 53.755 36.4331 53.755 36.8159 53.6328L37.6877 53.4061C38.1674 53.2686 38.619 53.0472 39.0215 52.7523L56.6667 39.6753C56.8759 39.5204 57.0342 39.3066 57.1211 39.0612C57.2081 38.8158 57.2199 38.55 57.1549 38.2979L56.9892 37.6266C56.9381 37.4364 56.8242 37.2691 56.6659 37.152C56.5076 37.0348 56.3143 36.9748 56.1174 36.9815C56.0665 36.9649 56.0115 36.9649 55.9605 36.9815L39.2918 47.3471C39.1593 47.4237 39.0089 47.4639 38.8559 47.4639C38.7029 47.4639 38.5525 47.4237 38.42 47.3471L32.3959 44.0343C32.2911 43.9771 32.1987 43.8998 32.1238 43.8068C32.0489 43.7138 31.9931 43.607 31.9595 43.4925C31.9259 43.3779 31.9152 43.2579 31.928 43.1392C31.9408 43.0205 31.9769 42.9055 32.0341 42.8007C32.0913 42.696 32.1687 42.6035 32.2616 42.5286C32.3546 42.4538 32.4614 42.3979 32.576 42.3643C32.6905 42.3308 32.8106 42.32 32.9293 42.3328C33.0479 42.3456 33.1629 42.3817 33.2677 42.4389L38.8297 45.4989L55.019 35.482C55.3532 35.2718 55.74 35.16 56.1349 35.1594C56.7359 35.1539 57.3212 35.3515 57.7959 35.7201C58.2706 36.0888 58.6069 36.607 58.7503 37.1907L58.9246 37.862C59.0752 38.4635 59.0438 39.0962 58.8342 39.6798C58.6247 40.2634 58.2465 40.7716 57.7477 41.14L40.1026 54.2343C39.5229 54.668 38.8662 54.9875 38.1672 55.1759L37.2954 55.4112C36.9689 55.502 36.6317 55.5489 36.2928 55.5507Z" fill="#000DFF"/>
<path d="M32.8057 40.2569L28.7083 40.1087C28.4678 40.1087 28.2372 40.0132 28.0672 39.8432C27.8972 39.6731 27.8016 39.4425 27.8016 39.202C27.8016 38.9616 27.8972 38.731 28.0672 38.5609C28.2372 38.3909 28.4678 38.2954 28.7083 38.2954L32.7622 38.4436L42.7529 38.2692C42.9801 38.2567 43.1946 38.1608 43.3555 38C43.5163 37.8391 43.6122 37.6246 43.6247 37.3974L43.7206 36.3513C43.7378 36.1656 43.6818 35.9806 43.5646 35.8357C43.4473 35.6907 43.2781 35.5973 43.0929 35.5754L23.8088 33.1343C23.4516 33.0874 23.0883 33.1202 22.7452 33.2302L11.6211 37.0574C11.3899 37.1349 11.1374 37.1173 10.9191 37.0086C10.7009 36.8999 10.5347 36.7089 10.4573 36.4777C10.3798 36.2465 10.3974 35.994 10.5061 35.7757C10.6148 35.5574 10.8058 35.3913 11.037 35.3138L22.257 31.4867C22.8605 31.2872 23.5008 31.2247 24.1314 31.3036L43.4155 33.7446C44.0655 33.8277 44.6582 34.1591 45.0693 34.6694C45.4805 35.1796 45.6782 35.8292 45.6211 36.482L45.534 37.5282C45.4757 38.2061 45.1679 38.8382 44.6702 39.302C44.1725 39.7659 43.5204 40.0285 42.8401 40.039L32.8057 40.2569Z" fill="#000DFF"/>
<path d="M45.2718 36.3524C45.0406 36.3964 44.8014 36.3467 44.6068 36.2142C44.4123 36.0818 44.2783 35.8775 44.2344 35.6463C44.1904 35.4151 44.2401 35.1759 44.3726 34.9813C44.505 34.7868 44.7093 34.6528 44.9405 34.6089L52.4641 31.6273C53.0737 31.414 53.7376 31.414 54.3472 31.6273C54.9715 31.8501 55.5117 32.2602 55.8941 32.8017C56.2764 33.3432 56.4821 33.9896 56.4831 34.6524V34.8965C56.4831 35.137 56.3875 35.3676 56.2175 35.5377C56.0475 35.7077 55.8169 35.8032 55.5764 35.8032C55.3359 35.8032 55.1053 35.7077 54.9353 35.5377C54.7653 35.3676 54.6697 35.137 54.6697 34.8965V34.6524C54.6693 34.3646 54.5792 34.084 54.412 33.8497C54.2449 33.6154 54.0089 33.4389 53.7369 33.3448C53.5305 33.275 53.3069 33.275 53.1005 33.3448L45.6467 36.3089C45.526 36.3488 45.3984 36.3636 45.2718 36.3524Z" fill="#000DFF"/>
<path d="M28.1507 10.7661C27.3282 10.7661 26.5242 10.5223 25.8403 10.0653C25.1565 9.60838 24.6235 8.95892 24.3087 8.19906C23.994 7.4392 23.9116 6.60307 24.0721 5.79641C24.2325 4.98974 24.6286 4.24878 25.2102 3.6672C25.7917 3.08563 26.5327 2.68958 27.3394 2.52912C28.146 2.36867 28.9822 2.45102 29.742 2.76576C30.5019 3.08051 31.1513 3.61351 31.6083 4.29736C32.0652 4.98122 32.3091 5.78521 32.3091 6.60768C32.3068 7.70987 31.8679 8.76625 31.0886 9.54561C30.3092 10.325 29.2528 10.7638 28.1507 10.7661ZM28.1507 4.26255C27.6876 4.266 27.2359 4.40646 26.8526 4.66623C26.4692 4.926 26.1713 5.29345 25.9965 5.72226C25.8217 6.15106 25.7777 6.62203 25.8702 7.07579C25.9626 7.52954 26.1873 7.94577 26.516 8.272C26.8446 8.59823 27.2625 8.81986 27.7169 8.90894C28.1714 8.99803 28.642 8.95058 29.0695 8.77258C29.497 8.59458 29.8622 8.294 30.1192 7.90874C30.3761 7.52347 30.5132 7.07076 30.5132 6.60768C30.5121 6.29857 30.4501 5.99271 30.3307 5.70757C30.2114 5.42242 30.037 5.16358 29.8176 4.94581C29.5982 4.72804 29.3381 4.55562 29.0521 4.43839C28.7661 4.32116 28.4598 4.26141 28.1507 4.26255Z" fill="#000DFF"/>
<path d="M39.8499 26.5649C39.0274 26.5649 38.2234 26.321 37.5396 25.8641C36.8557 25.4072 36.3227 24.7577 36.008 23.9978C35.6932 23.238 35.6109 22.4018 35.7713 21.5952C35.9318 20.7885 36.3278 20.0475 36.9094 19.466C37.491 18.8844 38.2319 18.4883 39.0386 18.3279C39.8453 18.1674 40.6814 18.2498 41.4412 18.5645C42.2011 18.8793 42.8506 19.4123 43.3075 20.0961C43.7644 20.78 44.0083 21.584 44.0083 22.4065C44.006 23.5086 43.5672 24.565 42.7878 25.3444C42.0084 26.1237 40.9521 26.5626 39.8499 26.5649ZM39.8499 20.0613C39.386 20.0613 38.9326 20.1989 38.547 20.4565C38.1613 20.7142 37.8608 21.0805 37.6833 21.509C37.5058 21.9375 37.4593 22.4091 37.5498 22.864C37.6403 23.3189 37.8636 23.7367 38.1916 24.0647C38.5196 24.3927 38.9374 24.616 39.3924 24.7065C39.8473 24.797 40.3188 24.7506 40.7473 24.5731C41.1758 24.3956 41.5421 24.095 41.7998 23.7093C42.0575 23.3237 42.195 22.8703 42.195 22.4065C42.195 21.7845 41.9479 21.188 41.5081 20.7482C41.0683 20.3084 40.4718 20.0613 39.8499 20.0613Z" fill="#000DFF"/>
<path d="M26.4244 23.3455C26.1835 23.3458 25.952 23.2519 25.7792 23.084C25.6115 22.9129 25.5176 22.6828 25.5176 22.4432C25.5176 22.2036 25.6115 21.9736 25.7792 21.8025L41.6372 5.9358C41.7219 5.85108 41.8225 5.78388 41.9332 5.73803C42.0439 5.69218 42.1625 5.66858 42.2823 5.66858C42.4021 5.66858 42.5208 5.69218 42.6315 5.73803C42.7422 5.78388 42.8427 5.85108 42.9275 5.9358C43.0122 6.02052 43.0794 6.1211 43.1252 6.23179C43.1711 6.34248 43.1947 6.46112 43.1947 6.58093C43.1947 6.70074 43.1711 6.81938 43.1252 6.93007C43.0794 7.04076 43.0122 7.14134 42.9275 7.22606L27.0695 23.0491C26.9868 23.1386 26.8873 23.2109 26.7765 23.2618C26.6658 23.3126 26.5461 23.3411 26.4244 23.3455Z" fill="#000DFF"/>
</svg>
