<svg width="68" height="68" viewBox="0 0 68 68" fill="none" xmlns="http://www.w3.org/2000/svg">
<path d="M15.7882 32.7184C15.676 32.7197 15.5647 32.698 15.4612 32.6545C15.3577 32.611 15.2643 32.5467 15.1867 32.4656L8.07281 25.3518C7.91825 25.1896 7.83203 24.9742 7.83203 24.7502C7.83203 24.5262 7.91825 24.3108 8.07281 24.1487L24.3056 7.90717C24.4682 7.75003 24.6854 7.6622 24.9115 7.6622C25.1376 7.6622 25.3549 7.75003 25.5174 7.90717L32.6313 15.021C32.7884 15.1836 32.8762 15.4008 32.8762 15.6269C32.8762 15.853 32.7884 16.0702 32.6313 16.2328L16.3985 32.4656C16.2361 32.6267 16.0169 32.7175 15.7882 32.7184ZM9.88615 24.7502L15.7882 30.6523L30.8179 15.6226L24.9159 9.7205L9.88615 24.7502Z" fill="#000DFF"/>
<path d="M14.9338 36.0662C14.7051 36.0652 14.486 35.9744 14.3236 35.8133L4.35898 25.8836C4.20185 25.721 4.11401 25.5038 4.11401 25.2777C4.11401 25.0516 4.20185 24.8344 4.35898 24.6718L6.46 22.5708C6.62257 22.4136 6.83981 22.3258 7.0659 22.3258C7.29199 22.3258 7.50924 22.4136 7.6718 22.5708L17.6364 32.5005C17.7935 32.6631 17.8814 32.8803 17.8814 33.1064C17.8814 33.3325 17.7935 33.5498 17.6364 33.7123L15.5354 35.8133C15.3752 35.9723 15.1595 36.0629 14.9338 36.0662ZM6.2159 25.2821L14.9338 34L15.8056 33.1282L7.0877 24.4103L6.2159 25.2821Z" fill="#000DFF"/>
<path d="M33.599 18.0549C33.3734 18.0516 33.1577 17.961 32.9975 17.802L23.0678 7.84615C22.9088 7.68592 22.8182 7.47029 22.8149 7.24461C22.8159 7.0159 22.9067 6.79673 23.0678 6.63435L25.1688 4.53333C25.3313 4.37619 25.5486 4.28836 25.7747 4.28836C26.0008 4.28836 26.218 4.37619 26.3806 4.53333L36.3103 14.4892C36.4714 14.6516 36.5622 14.8708 36.5631 15.0995C36.5599 15.3252 36.4693 15.5408 36.3103 15.701L34.2093 17.802C34.0469 17.9631 33.8278 18.0539 33.599 18.0549ZM24.8811 7.27076L33.599 15.9887L34.4708 15.1169L25.7529 6.39897L24.8811 7.27076Z" fill="#000DFF"/>
<path d="M40.3466 44.2262C40.1191 44.2275 39.9001 44.1399 39.7363 43.9821L21.7076 25.9446C21.5505 25.7821 21.4626 25.5648 21.4626 25.3387C21.4626 25.1126 21.5505 24.8954 21.7076 24.7328L24.8984 21.5421C25.0609 21.3849 25.2782 21.2971 25.5043 21.2971C25.7304 21.2971 25.9476 21.3849 26.1102 21.5421L44.1476 39.5708C44.3047 39.7333 44.3926 39.9506 44.3926 40.1767C44.3926 40.4028 44.3047 40.62 44.1476 40.7826L40.9743 43.9821C40.8911 44.0623 40.7927 44.1253 40.685 44.1672C40.5772 44.2091 40.4622 44.2291 40.3466 44.2262ZM23.5384 25.3431L40.364 42.16L42.343 40.181L25.5086 23.3554L23.5384 25.3431Z" fill="#000DFF"/>
<path d="M52.0461 59.1687C51.9339 59.17 51.8226 59.1483 51.7191 59.1048C51.6156 59.0613 51.5222 58.997 51.4446 58.9159L39.5359 47.0072C39.2707 46.7431 39.0603 46.4293 38.9167 46.0837C38.7731 45.7381 38.6992 45.3676 38.6992 44.9933C38.6992 44.6191 38.7731 44.2486 38.9167 43.903C39.0603 43.5574 39.2707 43.2436 39.5359 42.9795L43.1451 39.3703C43.4092 39.1051 43.723 38.8947 44.0686 38.7511C44.4142 38.6075 44.7847 38.5336 45.1589 38.5336C45.5332 38.5336 45.9037 38.6075 46.2493 38.7511C46.5949 38.8947 46.9087 39.1051 47.1728 39.3703L59.0815 51.279C59.2361 51.4411 59.3223 51.6565 59.3223 51.8805C59.3223 52.1045 59.2361 52.3199 59.0815 52.4821L52.6477 58.9159C52.57 58.997 52.4766 59.0613 52.3731 59.1048C52.2697 59.1483 52.1583 59.17 52.0461 59.1687ZM45.1589 40.2421C44.8559 40.2432 44.5652 40.362 44.3482 40.5733L40.7389 44.1826C40.527 44.3992 40.4083 44.6903 40.4083 44.9933C40.4083 45.2964 40.527 45.5875 40.7389 45.8041L52.0723 57.1375L57.303 51.9067L45.9697 40.5733C45.8633 40.4671 45.7368 40.3831 45.5976 40.3262C45.4584 40.2693 45.3093 40.2407 45.1589 40.2421Z" fill="#000DFF"/>
<path d="M52.4647 63.6846C52.2402 63.6837 52.0248 63.5963 51.8632 63.4405L49.3873 60.9646C49.2327 60.8025 49.1465 60.5871 49.1465 60.3631C49.1465 60.1391 49.2327 59.9237 49.3873 59.7615L59.9273 49.2215C60.0894 49.067 60.3048 48.9807 60.5288 48.9807C60.7528 48.9807 60.9682 49.067 61.1303 49.2215L63.6411 51.6974C63.7982 51.86 63.8861 52.0772 63.8861 52.3033C63.8861 52.5294 63.7982 52.7467 63.6411 52.9092L53.075 63.4405C52.9112 63.5984 52.6922 63.686 52.4647 63.6846ZM51.2093 60.3631L52.4647 61.6184L61.7842 52.3077L60.5288 51.0523L51.2093 60.3631Z" fill="#000DFF"/>
<path d="M31.5329 62.7692H11.5775C10.8353 62.7692 10.1235 62.4744 9.5987 61.9496C9.07389 61.4248 8.77905 60.713 8.77905 59.9708V58.2272C8.77905 57.4842 9.07361 56.7715 9.59817 56.2453C10.1227 55.7191 10.8345 55.4223 11.5775 55.42H31.5329C32.2759 55.4223 32.9877 55.7191 33.5122 56.2453C34.0368 56.7715 34.3314 57.4842 34.3314 58.2272V59.9708C34.3314 60.713 34.0365 61.4248 33.5117 61.9496C32.9869 62.4744 32.2751 62.7692 31.5329 62.7692ZM11.5775 57.1898C11.4322 57.1863 11.2877 57.2119 11.1525 57.2651C11.0172 57.3183 10.894 57.398 10.79 57.4995C10.686 57.6011 10.6034 57.7224 10.547 57.8563C10.4906 57.9903 10.4616 58.1342 10.4616 58.2795V60.0231C10.4616 60.3121 10.5764 60.5893 10.7808 60.7937C10.9852 60.998 11.2623 61.1128 11.5514 61.1128H31.5329C31.8219 61.1128 32.0991 60.998 32.3035 60.7937C32.5078 60.5893 32.6226 60.3121 32.6226 60.0231V58.2795C32.6226 57.9905 32.5078 57.7133 32.3035 57.5089C32.0991 57.3046 31.8219 57.1898 31.5329 57.1898H11.5775Z" fill="#000DFF"/>
<path d="M29.6847 57.1897H13.417C13.1857 57.1897 12.964 57.0979 12.8005 56.9344C12.637 56.7709 12.5452 56.5492 12.5452 56.3179V52.6041C12.5452 52.3729 12.637 52.1511 12.8005 51.9876C12.964 51.8241 13.1857 51.7323 13.417 51.7323H29.6847C29.9159 51.7323 30.1376 51.8241 30.3011 51.9876C30.4646 52.1511 30.5564 52.3729 30.5564 52.6041V56.3354C30.5519 56.5636 30.458 56.7809 30.295 56.9406C30.132 57.1003 29.9129 57.1898 29.6847 57.1897ZM14.2713 55.4461H28.8303V53.4585H14.2713V55.4461Z" fill="#000DFF"/>
</svg>
