<svg width="68" height="68" viewBox="0 0 68 68" fill="none" xmlns="http://www.w3.org/2000/svg">
<path d="M29.9723 59.8051C29.6633 59.8031 29.3557 59.7621 29.0569 59.6831C28.614 59.564 28.1988 59.3587 27.8353 59.079C27.4718 58.7992 27.167 58.4505 26.9385 58.0528L17.8369 42.2908H15.64C13.3601 42.2885 11.1742 41.3824 9.56126 39.7711C7.94833 38.1598 7.04001 35.9747 7.0354 33.6949V30.0856C7.03771 27.8043 7.94501 25.617 9.55818 24.0038C11.1714 22.3906 13.3586 21.4833 15.64 21.481H39.9282C40.1675 21.481 40.397 21.5761 40.5662 21.7453C40.7355 21.9145 40.8305 22.144 40.8305 22.3833C40.8305 22.6226 40.7355 22.8521 40.5662 23.0214C40.397 23.1906 40.1675 23.2856 39.9282 23.2856H15.64C13.8373 23.2879 12.109 24.0051 10.8342 25.2799C9.55949 26.5546 8.84232 28.2829 8.84002 30.0856V33.6949C8.84232 35.4976 9.55949 37.2259 10.8342 38.5006C12.109 39.7754 13.8373 40.4926 15.64 40.4949H18.3513C18.5211 40.4853 18.6899 40.5256 18.8371 40.6108C18.9842 40.696 19.1033 40.8224 19.1795 40.9744L28.4903 57.1549C28.724 57.5354 29.0948 57.8117 29.5263 57.9269C29.9578 58.042 30.417 57.9873 30.8092 57.7738L35.5082 55.0626C35.892 54.833 36.1729 54.4647 36.2928 54.0338C36.351 53.8199 36.3664 53.5965 36.3379 53.3765C36.3095 53.1566 36.2379 52.9445 36.1272 52.7523L29.8328 41.8461C29.7563 41.7136 29.716 41.5633 29.716 41.4103C29.716 41.2572 29.7563 41.1069 29.8328 40.9744C29.9088 40.8355 30.0212 40.7199 30.1579 40.64C30.2946 40.5602 30.4504 40.519 30.6087 40.521H39.9282C40.1664 40.521 40.3948 40.6156 40.5632 40.784C40.7316 40.9524 40.8262 41.1808 40.8262 41.419C40.8262 41.6571 40.7316 41.8855 40.5632 42.0539C40.3948 42.2223 40.1664 42.3169 39.9282 42.3169H32.1692L37.679 51.9067C37.9075 52.2977 38.0561 52.7304 38.1159 53.1793C38.1758 53.6283 38.1458 54.0848 38.0277 54.522C37.9128 54.969 37.7103 55.3888 37.4319 55.7569C37.1536 56.1251 36.8049 56.4343 36.4062 56.6667L31.7072 59.3779C31.1758 59.6686 30.5779 59.8158 29.9723 59.8051Z" fill="#000DFF"/>
<path d="M55.4897 38.5595C55.2504 38.5595 55.0209 38.4644 54.8517 38.2952C54.6825 38.126 54.5874 37.8965 54.5874 37.6572C54.5874 37.4179 54.6825 37.1884 54.8517 37.0192C55.0209 36.85 55.2504 36.7549 55.4897 36.7549C57.4774 36.7549 59.16 35.4995 59.16 34.0087V29.798C59.16 28.3072 57.4774 27.0518 55.4897 27.0518C55.2504 27.0518 55.0209 26.9567 54.8517 26.7875C54.6825 26.6183 54.5874 26.3888 54.5874 26.1495C54.5874 25.9102 54.6825 25.6807 54.8517 25.5115C55.0209 25.3423 55.2504 25.2472 55.4897 25.2472C58.5061 25.2472 60.9646 27.2959 60.9646 29.798V34C60.9646 36.5108 58.5061 38.5595 55.4897 38.5595Z" fill="#000DFF"/>
<path d="M55.4897 54.801C55.3133 54.8001 55.1409 54.7486 54.9928 54.6528L39.4313 44.4615C39.306 44.3812 39.2033 44.2701 39.1331 44.1389C39.0629 44.0076 39.0275 43.8606 39.0302 43.7118V19.9118C39.0271 19.7661 39.0606 19.6219 39.1276 19.4924C39.1946 19.363 39.293 19.2524 39.4138 19.1708L54.9754 8.36051C55.1081 8.26456 55.2652 8.20794 55.4286 8.19715C55.5921 8.18635 55.7553 8.22182 55.8995 8.29949C56.0475 8.37203 56.172 8.48506 56.2584 8.62548C56.3448 8.76591 56.3896 8.92795 56.3877 9.09282V53.9031C56.3896 54.0646 56.3466 54.2236 56.2635 54.3621C56.1804 54.5007 56.0604 54.6134 55.9169 54.6877C55.7866 54.7615 55.6395 54.8006 55.4897 54.801ZM40.8261 43.1974L54.5831 52.2379V10.819L40.8261 20.4087V43.1974Z" fill="#000DFF"/>
</svg>
