<svg width="66.5" height="41" viewBox="0 0 67 42" fill="none" xmlns="http://www.w3.org/2000/svg">
<circle cx="20.5" cy="21" r="20.5" fill="#000DFF"/>
<circle cx="46" cy="21" r="20.5" fill="#000DFF"/>
<path d="M36.022 12.488L29.47 31H26.74L22.086 17.688L17.38 31H14.65L8.124 12.488H11.53L16.158 26.294L20.968 12.488H23.36L28.066 26.398L32.798 12.488H36.022Z" fill="#FAFBFE"/>
<path d="M40.002 12.488H46.814C49.8473 12.488 52.196 13.294 53.86 14.906C55.5413 16.518 56.382 18.7887 56.382 21.718C56.382 24.6647 55.5413 26.9527 53.86 28.582C52.196 30.194 49.8473 31 46.814 31H40.002V12.488ZM46.606 28.27C50.87 28.27 53.002 26.086 53.002 21.718C53.002 17.3847 50.87 15.218 46.606 15.218H43.356V28.27H46.606Z" fill="#FAFBFE"/>
</svg>
