<svg width="93" height="38" viewBox="0 0 93 38" fill="none" xmlns="http://www.w3.org/2000/svg">
<rect x="0.5" y="0.5" width="92" height="37" rx="18.5" fill="#000DFF"/>
<path d="M18.3203 24V12.625H22.0391C23.2734 12.625 24.2005 12.8802 24.8203 13.3906C25.4453 13.901 25.7578 14.6562 25.7578 15.6562C25.7578 16.1875 25.6068 16.6589 25.3047 17.0703C25.0026 17.4766 24.5911 17.7917 24.0703 18.0156C24.6849 18.1875 25.1693 18.5156 25.5234 19C25.8828 19.4792 26.0625 20.0521 26.0625 20.7188C26.0625 21.7396 25.7318 22.5417 25.0703 23.125C24.4089 23.7083 23.474 24 22.2656 24H18.3203ZM19.8203 18.6797V22.7734H22.2969C22.9948 22.7734 23.5443 22.5938 23.9453 22.2344C24.3516 21.8698 24.5547 21.3698 24.5547 20.7344C24.5547 19.3646 23.8099 18.6797 22.3203 18.6797H19.8203ZM19.8203 17.4766H22.0859C22.7422 17.4766 23.2656 17.3125 23.6562 16.9844C24.0521 16.6562 24.25 16.2109 24.25 15.6484C24.25 15.0234 24.0677 14.5703 23.7031 14.2891C23.3385 14.0026 22.7839 13.8594 22.0391 13.8594H19.8203V17.4766ZM30.8984 18.6328L32.7734 15.5469H34.4609L31.6953 19.7266L34.5469 24H32.875L30.9219 20.8359L28.9688 24H27.2891L30.1406 19.7266L27.375 15.5469H29.0469L30.8984 18.6328ZM35.4609 19.6953C35.4609 18.8672 35.6224 18.1224 35.9453 17.4609C36.2734 16.7995 36.7266 16.2891 37.3047 15.9297C37.888 15.5703 38.5521 15.3906 39.2969 15.3906C40.4479 15.3906 41.3776 15.7891 42.0859 16.5859C42.7995 17.3828 43.1562 18.4427 43.1562 19.7656V19.8672C43.1562 20.6901 42.9974 21.4297 42.6797 22.0859C42.3672 22.737 41.9167 23.2448 41.3281 23.6094C40.7448 23.974 40.0729 24.1562 39.3125 24.1562C38.1667 24.1562 37.237 23.7578 36.5234 22.9609C35.8151 22.1641 35.4609 21.1094 35.4609 19.7969V19.6953ZM36.9141 19.8672C36.9141 20.8047 37.1302 21.5573 37.5625 22.125C38 22.6927 38.5833 22.9766 39.3125 22.9766C40.0469 22.9766 40.6302 22.6901 41.0625 22.1172C41.4948 21.5391 41.7109 20.7318 41.7109 19.6953C41.7109 18.7682 41.4896 18.0182 41.0469 17.4453C40.6094 16.8672 40.026 16.5781 39.2969 16.5781C38.5833 16.5781 38.0078 16.862 37.5703 17.4297C37.1328 17.9974 36.9141 18.8099 36.9141 19.8672ZM44.3359 22.8203L44.8359 22.2031C45.3984 21.474 45.7188 20.3802 45.7969 18.9219L45.9297 15.5469H51.375V22.8203H52.4609V26.4844H51.0156V24H45.1172V26.4844H43.6719L43.6797 22.8203H44.3359ZM46.0469 22.8203H49.9297V16.8828H47.3281L47.2422 18.8984C47.1536 20.5807 46.7552 21.888 46.0469 22.8203Z" fill="#FAFBFE"/>
<path d="M71.5059 19L68.5059 22.25M71.5059 19L68.5059 16M71.5059 19L62.0059 19M68.0059 13L74.5059 13V25H68.0059" stroke="#FAFBFE"/>
<rect x="0.5" y="0.5" width="92" height="37" rx="18.5" stroke="#000DFF"/>
</svg>
