<svg width="68" height="68" viewBox="0 0 68 68" fill="none" xmlns="http://www.w3.org/2000/svg">
<path d="M29.7369 65.0969H10.0169C9.26189 65.0925 8.51529 64.9379 7.82057 64.6421C7.12586 64.3463 6.49692 63.9153 5.97038 63.3742C5.44383 62.833 5.03019 62.1926 4.75355 61.49C4.4769 60.7875 4.34278 60.0369 4.35898 59.282V19.8246C4.35182 19.0893 4.49575 18.3603 4.78185 17.6829C5.06796 17.0055 5.49014 16.3941 6.02222 15.8865C6.55431 15.3789 7.18497 14.9861 7.87512 14.7322C8.56527 14.4784 9.3002 14.3689 10.0344 14.4108H10.2872C10.5184 14.4108 10.7401 14.5026 10.9036 14.6661C11.0671 14.8296 11.159 15.0513 11.159 15.2826C11.159 15.5138 11.0671 15.7355 10.9036 15.899C10.7401 16.0625 10.5184 16.1543 10.2872 16.1543H10.0344C7.68923 16.1979 6.10257 17.6538 6.10257 19.8246V59.282C6.08747 59.8026 6.17641 60.321 6.36417 60.8067C6.55193 61.2925 6.83474 61.7359 7.19603 62.111C7.55732 62.4861 7.98983 62.7854 8.46822 62.9912C8.94662 63.197 9.46128 63.3053 9.98205 63.3097H29.7369C31.9077 63.3097 34.5405 61.5138 34.5405 59.282V43.3456C34.5405 43.1075 34.6351 42.8791 34.8035 42.7107C34.9719 42.5423 35.2003 42.4477 35.4385 42.4477C35.6766 42.4477 35.905 42.5423 36.0734 42.7107C36.2418 42.8791 36.3364 43.1075 36.3364 43.3456V59.282C36.3364 62.6036 32.8492 65.0969 29.7369 65.0969Z" fill="#000DFF"/>
<path d="M36.1533 56.4662H5.95434C5.71619 56.4662 5.4878 56.3716 5.3194 56.2032C5.151 56.0348 5.0564 55.8064 5.0564 55.5682C5.0564 55.3301 5.151 55.1017 5.3194 54.9333C5.4878 54.7649 5.71619 54.6703 5.95434 54.6703H36.1533C36.3915 54.6703 36.6199 54.7649 36.7883 54.9333C36.9567 55.1017 37.0513 55.3301 37.0513 55.5682C37.0513 55.8064 36.9567 56.0348 36.7883 56.2032C36.6199 56.3716 36.3915 56.4662 36.1533 56.4662Z" fill="#000DFF"/>
<path d="M13.1467 23.3903H5.95435C5.71619 23.3903 5.4878 23.2957 5.3194 23.1273C5.151 22.9589 5.0564 22.7305 5.0564 22.4923C5.0564 22.2542 5.151 22.0258 5.3194 21.8574C5.4878 21.689 5.71619 21.5944 5.95435 21.5944H13.1467C13.3848 21.5944 13.6132 21.689 13.7816 21.8574C13.95 22.0258 14.0446 22.2542 14.0446 22.4923C14.0446 22.7305 13.95 22.9589 13.7816 23.1273C13.6132 23.2957 13.3848 23.3903 13.1467 23.3903Z" fill="#000DFF"/>
<path d="M21.7948 60.7815H17.4358C17.1976 60.7815 16.9692 60.6869 16.8008 60.5185C16.6324 60.3501 16.5378 60.1217 16.5378 59.8836C16.5378 59.6454 16.6324 59.417 16.8008 59.2486C16.9692 59.0802 17.1976 58.9856 17.4358 58.9856H21.7948C22.0329 58.9856 22.2613 59.0802 22.4297 59.2486C22.5981 59.417 22.6927 59.6454 22.6927 59.8836C22.6927 60.1217 22.5981 60.3501 22.4297 60.5185C22.2613 60.6869 22.0329 60.7815 21.7948 60.7815Z" fill="#000DFF"/>
<path d="M26.8078 42.5872C26.6978 42.5838 26.5889 42.5632 26.4853 42.5262C26.3081 42.4625 26.1563 42.3431 26.0525 42.186C25.9488 42.0288 25.8988 41.8423 25.9099 41.6544V33.4595H24.454C19.8683 33.4595 15.8494 29.6062 15.8494 25.221V10.9062C15.8494 6.64308 19.8683 2.90308 24.454 2.90308H55.9519C56.9887 2.90221 58.0148 3.11101 58.9688 3.51691C59.9228 3.9228 60.7848 4.51742 61.5031 5.26501C62.2213 6.01259 62.781 6.89771 63.1485 7.86714C63.5159 8.83657 63.6835 9.87029 63.6412 10.9062V25.221C63.6412 29.8415 60.2586 33.4595 55.9345 33.4595H35.5868L27.4704 42.2908C27.3877 42.3849 27.2858 42.4601 27.1714 42.5112C27.0571 42.5624 26.9331 42.5883 26.8078 42.5872ZM24.454 4.69898C20.8273 4.69898 17.6365 7.59334 17.6365 10.9062V25.221C17.6365 28.5949 20.8883 31.6636 24.454 31.6636H26.8078C27.039 31.6636 27.2608 31.7554 27.4243 31.9189C27.5878 32.0824 27.6796 32.3042 27.6796 32.5354V39.3615L34.5058 31.9338C34.5884 31.8397 34.6904 31.7646 34.8047 31.7134C34.9191 31.6623 35.0431 31.6363 35.1683 31.6374H55.9519C59.2822 31.6636 61.8976 28.839 61.8976 25.221V10.9062C61.9353 10.106 61.8104 9.30644 61.5305 8.55585C61.2506 7.80526 60.8215 7.11918 60.2691 6.53906C59.7166 5.95893 59.0524 5.49678 58.3164 5.18052C57.5803 4.86426 56.7879 4.70044 55.9868 4.69898H24.454Z" fill="#000DFF"/>
</svg>
