<svg width="68" height="68" viewBox="0 0 68 68" fill="none" xmlns="http://www.w3.org/2000/svg">
<path d="M35.1159 67.3636C29.2359 67.3631 23.4605 65.8087 18.3746 62.8578C13.2887 59.9068 9.07302 55.6642 6.15456 50.5596C3.23609 45.455 1.71852 39.6698 1.75554 33.7899C1.79257 27.91 3.38289 22.1444 6.36541 17.0769C9.34794 12.0095 13.6167 7.82028 18.7394 4.93362C23.862 2.04697 29.6566 0.56542 35.5361 0.639029C41.4157 0.712637 47.1713 2.33879 52.2201 5.35278C57.2689 8.36678 61.4315 12.6615 64.2862 17.8021C64.3499 17.9049 64.3916 18.0198 64.4085 18.1396C64.4254 18.2594 64.4172 18.3814 64.3844 18.4978C64.3516 18.6142 64.2949 18.7226 64.218 18.8159C64.141 18.9093 64.0455 18.9856 63.9375 19.04C63.7254 19.1567 63.476 19.1856 63.2429 19.1204C63.0098 19.0552 62.8115 18.9011 62.6908 18.6913C59.4367 12.8412 54.4058 8.17807 48.3259 5.3767C42.246 2.57533 35.4325 1.78098 28.8712 3.10859C22.3099 4.43619 16.3412 7.8169 11.8286 12.7615C7.31606 17.7062 4.4937 23.9583 3.76991 30.6133C3.04613 37.2683 4.45846 43.981 7.80255 49.7801C11.1466 55.5793 16.2491 60.164 22.3715 62.8711C28.494 65.5782 35.319 66.2671 41.8589 64.8383C48.3989 63.4094 54.3147 59.9369 58.7503 54.9231C58.9052 54.7369 59.1277 54.62 59.3689 54.5979C59.61 54.5758 59.8501 54.6505 60.0362 54.8054C60.2223 54.9603 60.3393 55.1828 60.3614 55.424C60.3834 55.6651 60.3088 55.9051 60.1539 56.0913C57.0166 59.636 53.1623 62.4739 48.8459 64.4172C44.5295 66.3605 39.8496 67.3648 35.1159 67.3636Z" fill="#000DFF"/>
<path d="M59.6743 18.8744L65.6548 23.0067L66.2389 15.7621L59.6743 18.8744Z" fill="#000DFF"/>
<path d="M44.6011 26.0841H25.8401C25.6728 26.0818 25.5132 26.0138 25.3957 25.8947C25.2782 25.7756 25.2124 25.615 25.2124 25.4477C25.2124 25.2812 25.2785 25.1216 25.3962 25.0039C25.514 24.8861 25.6736 24.82 25.8401 24.82H44.6011C44.7676 24.82 44.9272 24.8861 45.045 25.0039C45.1627 25.1216 45.2288 25.2812 45.2288 25.4477C45.2288 25.615 45.163 25.7756 45.0455 25.8947C44.928 26.0138 44.7684 26.0818 44.6011 26.0841Z" fill="#000DFF" stroke="#000DFF" stroke-width="0.71" stroke-miterlimit="10"/>
<path d="M44.6011 30.8179H25.8401C25.6728 30.8156 25.5132 30.7476 25.3957 30.6285C25.2782 30.5094 25.2124 30.3488 25.2124 30.1815C25.2124 30.015 25.2785 29.8554 25.3962 29.7377C25.514 29.62 25.6736 29.5538 25.8401 29.5538H44.6011C44.7676 29.5538 44.9272 29.62 45.045 29.7377C45.1627 29.8554 45.2288 30.015 45.2288 30.1815C45.2288 30.3488 45.163 30.5094 45.0455 30.6285C44.928 30.7476 44.7684 30.8156 44.6011 30.8179Z" fill="#000DFF" stroke="#000DFF" stroke-width="0.71" stroke-miterlimit="10"/>
<path d="M44.6011 35.5431H25.8401C25.6736 35.5431 25.514 35.477 25.3962 35.3592C25.2785 35.2415 25.2124 35.0819 25.2124 34.9154C25.2124 34.7481 25.2782 34.5875 25.3957 34.4684C25.5132 34.3493 25.6728 34.2813 25.8401 34.279H44.6011C44.7684 34.2813 44.928 34.3493 45.0455 34.4684C45.163 34.5875 45.2288 34.7481 45.2288 34.9154C45.2288 35.0819 45.1627 35.2415 45.045 35.3592C44.9272 35.477 44.7676 35.5431 44.6011 35.5431Z" fill="#000DFF" stroke="#000DFF" stroke-width="0.71" stroke-miterlimit="10"/>
<path d="M44.6011 40.2769H25.8401C25.6736 40.2769 25.514 40.2108 25.3962 40.0931C25.2785 39.9754 25.2124 39.8157 25.2124 39.6492C25.2124 39.4819 25.2782 39.3214 25.3957 39.2023C25.5132 39.0832 25.6728 39.0151 25.8401 39.0128H44.6011C44.7684 39.0151 44.928 39.0832 45.0455 39.2023C45.163 39.3214 45.2288 39.4819 45.2288 39.6492C45.2288 39.8157 45.1627 39.9754 45.045 40.0931C44.9272 40.2108 44.7676 40.2769 44.6011 40.2769Z" fill="#000DFF" stroke="#000DFF" stroke-width="0.71" stroke-miterlimit="10"/>
<path d="M44.6011 45.0108H25.8401C25.6728 45.0085 25.5132 44.9404 25.3957 44.8213C25.2782 44.7022 25.2124 44.5417 25.2124 44.3744C25.2124 44.2079 25.2785 44.0482 25.3962 43.9305C25.514 43.8128 25.6736 43.7467 25.8401 43.7467H44.6011C44.7676 43.7467 44.9272 43.8128 45.045 43.9305C45.1627 44.0482 45.2288 44.2079 45.2288 44.3744C45.2288 44.5417 45.163 44.7022 45.0455 44.8213C44.928 44.9404 44.7684 45.0085 44.6011 45.0108Z" fill="#000DFF" stroke="#000DFF" stroke-width="0.71" stroke-miterlimit="10"/>
<path d="M48.9166 54.2518H21.5248C21.1572 54.2518 20.8046 54.1057 20.5447 53.8458C20.2847 53.5858 20.1387 53.2333 20.1387 52.8656V19.2579H21.4028V52.8656C21.4028 52.898 21.4156 52.929 21.4385 52.9519C21.4614 52.9748 21.4925 52.9877 21.5248 52.9877H48.9166C48.949 52.9877 48.98 52.9748 49.0029 52.9519C49.0258 52.929 49.0387 52.898 49.0387 52.8656V11.9872C49.0387 11.9548 49.0258 11.9238 49.0029 11.9009C48.98 11.878 48.949 11.8651 48.9166 11.8651H29.4407V10.601H48.9166C49.2843 10.601 49.6368 10.7471 49.8968 11.007C50.1567 11.267 50.3028 11.6195 50.3028 11.9872V52.8656C50.3028 53.2333 50.1567 53.5858 49.8968 53.8458C49.6368 54.1057 49.2843 54.2518 48.9166 54.2518Z" fill="#000DFF" stroke="#000DFF" stroke-width="0.71" stroke-miterlimit="10"/>
<path d="M29.4404 19.8944H20.7748C20.6476 19.894 20.5234 19.8556 20.4183 19.784C20.3132 19.7124 20.2319 19.6109 20.185 19.4927C20.1381 19.3745 20.1277 19.2449 20.1551 19.1207C20.1825 18.9965 20.2466 18.8834 20.3389 18.7959L29.0569 10.7667C29.1476 10.6845 29.26 10.6302 29.3808 10.6104C29.5015 10.5905 29.6254 10.6059 29.7377 10.6546C29.8499 10.7034 29.9457 10.7835 30.0136 10.8853C30.0815 10.9871 30.1186 11.1064 30.1204 11.2287V19.2579C30.1207 19.3453 30.1029 19.4318 30.0682 19.512C30.0335 19.5922 29.9827 19.6644 29.9189 19.7241C29.8551 19.7838 29.7797 19.8297 29.6974 19.859C29.6151 19.8883 29.5276 19.9003 29.4404 19.8944ZM22.3876 18.6303H28.8128V12.6759L22.3876 18.6303Z" fill="#000DFF" stroke="#000DFF" stroke-width="0.71" stroke-miterlimit="10"/>
</svg>
