<svg width="68" height="68" viewBox="0 0 68 68" fill="none" xmlns="http://www.w3.org/2000/svg">
<path d="M4.4983 45.2723C4.27743 45.2789 4.06023 45.2148 3.87833 45.0894C3.69643 44.9639 3.55934 44.7837 3.48702 44.5749C1.29098 38.2704 1.10516 31.4399 2.95517 25.0254C4.80519 18.6109 8.5999 12.9285 13.8159 8.76177C19.032 4.59506 25.4123 2.14942 32.077 1.76213C38.7417 1.37484 45.3624 3.06499 51.026 6.59948C51.1581 6.66258 51.2754 6.75293 51.3701 6.86461C51.4649 6.97628 51.5349 7.10674 51.5756 7.24741C51.6162 7.38807 51.6267 7.53576 51.6062 7.68075C51.5857 7.82575 51.5348 7.96476 51.4567 8.08866C51.3787 8.21255 51.2753 8.31852 51.1533 8.39959C51.0314 8.48067 50.8937 8.535 50.7492 8.55904C50.6048 8.58307 50.4569 8.57625 50.3153 8.53902C50.1736 8.5018 50.0415 8.43502 49.9275 8.34307C44.6276 5.04846 38.4369 3.47718 32.2073 3.84543C25.9777 4.21368 20.0153 6.50336 15.1404 10.3994C10.2656 14.2955 6.71782 19.6065 4.98534 25.6017C3.25286 31.5969 3.42078 37.9816 5.46599 43.8774C5.51149 44.0062 5.53111 44.1427 5.52374 44.2791C5.51636 44.4155 5.48212 44.549 5.42299 44.6722C5.36386 44.7953 5.281 44.9055 5.17917 44.9965C5.07734 45.0875 4.95854 45.1576 4.82958 45.2026C4.72296 45.2412 4.61145 45.2647 4.4983 45.2723Z" fill="#000DFF"/>
<path d="M56.6667 12.4928C52.8482 11.2636 47.7482 10.2436 43.9385 10.4615L49.5964 6.97436L51.6974 0.610262C52.3949 4.35898 54.5657 9.09283 56.6667 12.4928Z" fill="#000DFF"/>
<path d="M33.9999 66.2564C27.9832 66.248 22.0886 64.557 16.9825 61.3744C16.8504 61.3113 16.7331 61.2209 16.6384 61.1092C16.5436 60.9976 16.4736 60.8671 16.4329 60.7264C16.3923 60.5858 16.3818 60.4381 16.4023 60.2931C16.4228 60.1481 16.4737 60.0091 16.5518 59.8852C16.6298 59.7613 16.7332 59.6553 16.8552 59.5743C16.9771 59.4932 17.1148 59.4388 17.2593 59.4148C17.4037 59.3908 17.5516 59.3976 17.6932 59.4348C17.8349 59.472 17.967 59.5388 18.081 59.6308C23.3809 62.9254 29.5715 64.4967 35.8012 64.1284C42.0308 63.7602 47.9932 61.4705 52.8681 57.5744C57.7429 53.6783 61.2907 48.3674 63.0231 42.3722C64.7556 36.377 64.5877 29.9922 62.5425 24.0964C62.4535 23.8351 62.4719 23.5492 62.5937 23.3015C62.7155 23.0538 62.9307 22.8647 63.192 22.7756C63.4533 22.6866 63.7392 22.705 63.9869 22.8269C64.2346 22.9487 64.4237 23.1639 64.5128 23.4251C66.188 28.2884 66.6779 33.4814 65.9416 38.5722C65.2054 43.663 63.2643 48.5044 60.2798 52.6938C57.2953 56.8832 53.3537 60.2995 48.7827 62.6584C44.2118 65.0174 39.1437 66.2509 33.9999 66.2564Z" fill="#000DFF"/>
<path d="M11.3333 55.5072C15.1517 56.7364 20.2517 57.7564 24.0615 57.5385L18.4035 61.0256L16.3025 67.3897C15.605 63.641 13.4343 58.9072 11.3333 55.5072Z" fill="#000DFF"/>
<path d="M34.0699 53.0836C33.3622 53.0852 32.6549 53.0474 31.9514 52.9703C31.7867 52.9509 31.6321 52.8811 31.5087 52.7702C31.3854 52.6594 31.2994 52.513 31.2627 52.3513L30.3909 48.219C29.2457 47.8696 28.1454 47.3868 27.113 46.7805L23.1986 49.0908C23.0633 49.1671 22.9085 49.202 22.7535 49.1911C22.5986 49.1803 22.4502 49.1242 22.3268 49.0297C21.5851 48.4562 20.8858 47.8298 20.2345 47.1554C20.1034 47.0394 20.0144 46.8833 19.9813 46.7114C19.9482 46.5395 19.9728 46.3615 20.0514 46.2051L22.1786 42.1426C21.5 41.131 20.9439 40.0423 20.5222 38.8995L15.8494 38.1149C15.6898 38.0884 15.542 38.0143 15.4253 37.9022C15.3086 37.7902 15.2285 37.6455 15.1955 37.4872V37.339C15.1955 37.2256 15.1955 37.121 15.1345 37.0164C15.0042 36.3072 14.9139 35.5912 14.8642 34.8718C14.8573 34.7071 14.9013 34.5442 14.9902 34.4054C15.0791 34.2665 15.2086 34.1585 15.3612 34.0959L19.6678 32.3523C19.7991 31.0681 20.092 29.8057 20.5396 28.5949L17.5581 25.1077C17.4514 24.9825 17.3859 24.8275 17.3703 24.6637C17.3547 24.5 17.3898 24.3354 17.4709 24.1923C17.9182 23.4276 18.4163 22.6936 18.9617 21.9954C19.0609 21.8655 19.1986 21.7703 19.3552 21.7234C19.5117 21.6764 19.6791 21.6801 19.8335 21.7339L24.053 23.0677C25.0245 22.0921 26.1243 21.2533 27.3222 20.5744L27.2786 16.4333C27.2779 16.2674 27.3287 16.1054 27.4239 15.9696C27.5192 15.8337 27.6542 15.7308 27.8104 15.6749C28.6919 15.3665 29.5953 15.1246 30.513 14.9513C30.6697 14.9203 30.8322 14.938 30.9786 15.0019C31.125 15.0657 31.2485 15.1728 31.3324 15.3087L33.4596 18.6651C34.8958 18.5353 36.3431 18.6116 37.7576 18.8918L40.0591 16.0933C40.1633 15.9701 40.3025 15.8816 40.4583 15.8395C40.614 15.7975 40.7789 15.8039 40.9309 15.858C41.8716 16.2088 42.7814 16.6375 43.6509 17.1395C43.7885 17.2169 43.8996 17.334 43.9696 17.4756C44.0396 17.6171 44.0652 17.7765 44.0432 17.9328L43.5724 21.42C44.7484 22.2617 45.7967 23.2689 46.6848 24.4103L49.9191 23.8087C50.0854 23.7703 50.2596 23.786 50.4164 23.8534C50.5732 23.9208 50.7044 24.0365 50.7909 24.1836C51.3245 25.1086 51.7794 26.0768 52.1509 27.078C52.209 27.2266 52.221 27.3893 52.1852 27.5448C52.1495 27.7003 52.0676 27.8415 51.9504 27.9497L49.5094 30.1728C49.5878 30.5128 49.6576 30.8615 49.7186 31.2015C49.8944 32.2379 49.9616 33.2897 49.9191 34.34L52.7699 35.9441C52.9073 36.0262 53.0177 36.1467 53.0874 36.2908C53.1571 36.4348 53.1831 36.5962 53.1622 36.7549C52.9975 37.8391 52.7379 38.9068 52.3863 39.9456C52.3366 40.0979 52.2414 40.2314 52.1136 40.328C51.9858 40.4246 51.8315 40.4798 51.6714 40.4862L48.2714 40.6256C47.6691 41.7976 46.919 42.8875 46.0396 43.8687L47.295 47.2164C47.3509 47.366 47.3609 47.529 47.3236 47.6843C47.2863 47.8396 47.2035 47.9802 47.0858 48.0882C46.2934 48.8118 45.4419 49.468 44.5401 50.0497C44.4103 50.1338 44.2589 50.1785 44.1042 50.1785C43.9496 50.1785 43.7982 50.1338 43.6683 50.0497L40.6781 47.7482C39.6113 48.194 38.4968 48.5157 37.3565 48.7072H37.1212L35.7612 52.5518C35.7095 52.7005 35.6148 52.8305 35.489 52.9252C35.3633 53.0199 35.2122 53.075 35.055 53.0836H34.0699ZM32.6924 51.4359C33.2417 51.4795 33.8083 51.4969 34.3663 51.4882L35.7437 47.7046C35.8001 47.5696 35.8895 47.4509 36.0037 47.3594C36.118 47.268 36.2534 47.2068 36.3976 47.1815L37.0514 47.0944C38.2128 46.8936 39.3437 46.5449 40.4165 46.0569C40.5488 45.9962 40.6952 45.973 40.8397 45.99C40.9843 46.0069 41.1214 46.0632 41.236 46.1528L44.1478 48.3933C44.6555 48.0382 45.1443 47.657 45.6124 47.2513L44.3832 43.9559C44.3196 43.8108 44.3014 43.6499 44.3309 43.4943C44.3605 43.3387 44.4365 43.1957 44.5489 43.0841C45.5725 42.0228 46.4148 40.8006 47.0422 39.4662C47.1044 39.3347 47.2016 39.2229 47.323 39.143C47.4445 39.063 47.5856 39.018 47.7309 39.0128L51.0524 38.8733C51.2143 38.2707 51.3424 37.6595 51.436 37.0426L48.6463 35.4646C48.5173 35.3905 48.4115 35.2819 48.3406 35.151C48.2698 35.0201 48.2368 34.8722 48.2453 34.7236C48.323 33.6347 48.2732 32.5404 48.0971 31.4631C48.019 31.0076 47.9171 30.5566 47.7919 30.1118C47.7526 29.9694 47.7538 29.819 47.7954 29.6773C47.837 29.5356 47.9173 29.4083 48.0273 29.3097L50.416 27.1303C50.2062 26.5621 49.9646 26.0062 49.6924 25.4651L46.5365 26.0492C46.3895 26.0751 46.2382 26.0595 46.0996 26.004C45.9609 25.9486 45.8405 25.8555 45.7519 25.7354C44.7939 24.4391 43.6131 23.3233 42.2648 22.44C42.1405 22.3582 42.0424 22.2424 41.9821 22.1063C41.9218 21.9703 41.9019 21.8198 41.9248 21.6728L42.3781 18.2292C41.8986 17.9764 41.393 17.741 40.8699 17.5231L38.6294 20.2518C38.5339 20.3641 38.4094 20.4479 38.2694 20.494C38.1295 20.5401 37.9795 20.5468 37.836 20.5133C36.2933 20.1564 34.6997 20.0738 33.1283 20.2692C32.979 20.2862 32.8279 20.2609 32.6923 20.1962C32.5566 20.1314 32.4419 20.0299 32.3612 19.9031L30.2427 16.5641C29.7632 16.6687 29.2924 16.7908 28.8304 16.939V20.9754C28.8336 21.1204 28.7962 21.2635 28.7222 21.3883C28.6482 21.5132 28.5407 21.6147 28.4119 21.6815C27.055 22.394 25.8288 23.3314 24.7853 24.4538C24.6845 24.5658 24.5534 24.646 24.4079 24.6847C24.2624 24.7234 24.1088 24.7189 23.9658 24.6718L19.8073 23.3554C19.5458 23.7128 19.3017 24.0703 19.0663 24.4538L22.0217 27.8974C22.1129 28.0091 22.173 28.1429 22.196 28.2853C22.2189 28.4276 22.2039 28.5735 22.1524 28.7082C21.6115 30.0508 21.2963 31.4736 21.2196 32.919C21.2116 33.0694 21.1605 33.2143 21.0724 33.3364C20.9843 33.4585 20.8629 33.5527 20.7227 33.6077L16.4945 35.3513C16.4945 35.8046 16.5817 36.2231 16.6514 36.6764L21.2545 37.4436C21.3965 37.4669 21.5294 37.5289 21.6386 37.6227C21.7477 37.7165 21.829 37.8385 21.8735 37.9754C22.307 39.2901 22.9391 40.5308 23.7478 41.6544C23.8335 41.7733 23.8846 41.9136 23.8954 42.0598C23.9061 42.206 23.8762 42.3524 23.8089 42.4826L21.734 46.458C22.0827 46.798 22.4489 47.1292 22.8237 47.4431L26.6771 45.1677C26.8024 45.0933 26.9454 45.054 27.0912 45.054C27.2369 45.054 27.38 45.0933 27.5053 45.1677C28.6618 45.8923 29.9191 46.4417 31.2365 46.798C31.3756 46.8366 31.5016 46.9121 31.6014 47.0165C31.7011 47.1208 31.7708 47.2501 31.8032 47.3908L32.6924 51.4359Z" fill="#000DFF"/>
<path d="M34.6626 43.0492C32.2183 43.0579 29.8652 42.1218 28.0949 40.4364C26.3246 38.751 25.2739 36.4468 25.1625 34.005C25.051 31.5633 25.8873 29.1729 27.4968 27.3332C29.1062 25.4936 31.3642 24.3469 33.7991 24.1329C36.234 23.9188 38.6575 24.6539 40.5632 26.1845C42.4689 27.7152 43.7095 29.923 44.0258 32.3467C44.342 34.7705 43.7095 37.2227 42.2604 39.1911C40.8113 41.1595 38.6576 42.4918 36.2493 42.9097C35.725 42.999 35.1944 43.0457 34.6626 43.0492ZM34.6626 25.8749C34.2213 25.874 33.7809 25.9119 33.3462 25.9882C31.354 26.3827 29.5945 27.5391 28.4422 29.2114C27.2899 30.8837 26.8358 32.9398 27.1767 34.9418C27.5176 36.9438 28.6264 38.7338 30.2672 39.9305C31.908 41.1273 33.9511 41.6363 35.9616 41.3492C37.8804 41.0187 39.606 39.982 40.7988 38.4431C41.9915 36.9042 42.5651 34.9745 42.4066 33.0339C42.248 31.0934 41.3689 29.2824 39.9422 27.9575C38.5155 26.6325 36.6445 25.8896 34.6975 25.8749H34.6626Z" fill="#000DFF"/>
</svg>
