<svg width="68" height="68" viewBox="0 0 68 68" fill="none" xmlns="http://www.w3.org/2000/svg">
<path d="M50.0585 30.2251C50.0585 30.7216 49.9606 31.2132 49.7704 31.6717C49.5801 32.1303 49.3013 32.5468 48.9498 32.8975C48.5984 33.2481 48.1812 33.526 47.7222 33.7152C47.2632 33.9043 46.7714 34.0011 46.275 34H45.8042C45.4296 34 45.0704 33.8512 44.8055 33.5863C44.5407 33.3215 44.3919 32.9623 44.3919 32.5877V24.0877C44.3907 23.9015 44.4264 23.7169 44.4969 23.5445C44.5673 23.3722 44.6712 23.2155 44.8024 23.0834C44.9337 22.9513 45.0898 22.8465 45.2617 22.775C45.4336 22.7035 45.618 22.6667 45.8042 22.6667H46.275C46.7714 22.6655 47.2632 22.7623 47.7222 22.9515C48.1812 23.1407 48.5984 23.4186 48.9498 23.7692C49.3013 24.1199 49.5801 24.5364 49.7704 24.9949C49.9606 25.4535 50.0585 25.9451 50.0585 26.4415V30.2251Z" stroke="#000DFF" stroke-width="1.93" stroke-linecap="round" stroke-linejoin="round"/>
<path d="M17.9417 30.2251C17.9416 30.7216 18.0396 31.2132 18.2298 31.6717C18.4201 32.1303 18.6989 32.5468 19.0504 32.8975C19.4018 33.2481 19.819 33.526 20.278 33.7152C20.737 33.9043 21.2288 34.0011 21.7252 34H22.196C22.3815 34 22.5651 33.9635 22.7365 33.8925C22.9078 33.8215 23.0635 33.7175 23.1947 33.5863C23.3258 33.4552 23.4298 33.2995 23.5008 33.1282C23.5718 32.9568 23.6083 32.7732 23.6083 32.5877V24.0877C23.6095 23.9015 23.5738 23.7169 23.5033 23.5445C23.4329 23.3722 23.329 23.2155 23.1978 23.0834C23.0665 22.9513 22.9104 22.8465 22.7385 22.775C22.5666 22.7035 22.3822 22.6667 22.196 22.6667H21.7252C21.2288 22.6655 20.737 22.7623 20.278 22.9515C19.819 23.1407 19.4018 23.4186 19.0504 23.7692C18.6989 24.1199 18.4201 24.5364 18.2298 24.9949C18.0396 25.4535 17.9416 25.9451 17.9417 26.4415V30.2251Z" stroke="#000DFF" stroke-width="1.93" stroke-linecap="round" stroke-linejoin="round"/>
<path d="M23.6082 33.0585C24.5584 37.7749 28.7692 42.5 34 42.5C39.2307 42.5 43.4415 37.7749 44.3917 33.0585" stroke="#000DFF" stroke-width="1.93" stroke-linecap="round" stroke-linejoin="round"/>
<path d="M22.6667 19.8333C22.6667 13.9487 27.0257 9.44154 34.0001 9.44154C40.9744 9.44154 45.3334 13.9487 45.3334 19.8333" stroke="#000DFF" stroke-width="1.93" stroke-linecap="round" stroke-linejoin="round"/>
<path d="M19.7983 23.1985C19.7983 9.86001 24.5583 5.66667 33.9999 5.66667C43.4414 5.66667 48.2014 9.86001 48.2014 23.1985" stroke="#000DFF" stroke-width="1.93" stroke-linecap="round" stroke-linejoin="round"/>
<path d="M26.2148 22.7277C27.4724 21.4382 28.2243 19.7394 28.3333 17.9415C28.8777 18.5258 29.5342 18.9945 30.2636 19.3195C30.993 19.6445 31.7805 19.8193 32.5789 19.8333H38.7251C39.9399 19.8452 41.1191 20.2454 42.0902 20.9754" stroke="#000DFF" stroke-width="1.93" stroke-linecap="round" stroke-linejoin="round"/>
<path d="M46.3621 49.2564C48.1711 50.0027 50.0369 50.6032 51.9415 51.0523C59.5262 52.8918 59.5 57.5123 59.5 62.3333" stroke="#000DFF" stroke-width="1.93" stroke-linecap="round" stroke-linejoin="round"/>
<path d="M40.6082 39.7103V42.5" stroke="#000DFF" stroke-width="1.93" stroke-linecap="round" stroke-linejoin="round"/>
<path d="M27.3918 43.4415C27.3918 47.5826 20.5569 49.9713 16.0585 51.0523C8.47385 52.8918 8.5 57.5385 8.5 62.3333" stroke="#000DFF" stroke-width="1.93" stroke-linecap="round" stroke-linejoin="round"/>
<path d="M42.4738 47.9487C42.5459 48.3184 42.4778 48.7017 42.2828 49.024C42.0878 49.3463 41.7799 49.5845 41.419 49.6923L37.4872 50.878C37.1332 50.9889 36.7602 51.026 36.3914 50.987C36.0225 50.948 35.6655 50.8338 35.3426 50.6513C35.0185 50.4702 34.7381 50.2202 34.5212 49.9189C34.3043 49.6177 34.1561 49.2725 34.0872 48.9077L34.0261 48.5764C33.9539 48.2221 33.9611 47.8563 34.047 47.5051C34.1329 47.1539 34.2955 46.8261 34.5231 46.5451C34.7525 46.2562 35.0404 46.019 35.3679 45.8492C35.6955 45.6794 36.0552 45.5809 36.4236 45.56L40.521 45.2897C40.8987 45.2618 41.2738 45.3706 41.5779 45.5962C41.882 45.8219 42.0948 46.1494 42.1774 46.519L42.4738 47.9487Z" stroke="#000DFF" stroke-width="1.93" stroke-linecap="round" stroke-linejoin="round"/>
<path d="M47.2251 33.878V44.0344C47.2222 44.6737 47.0038 45.2935 46.6051 45.7934C46.2065 46.2932 45.6509 46.6441 45.0282 46.7892L42.4128 47.3995" stroke="#000DFF" stroke-width="1.93" stroke-linecap="round" stroke-linejoin="round"/>
<path d="M48.2014 49.9626C46.6521 52.3132 44.5436 54.2425 42.065 55.5774C39.5864 56.9123 36.8151 57.6111 33.9999 57.6111C31.1846 57.6111 28.4134 56.9123 25.9348 55.5774C23.4561 54.2425 21.3476 52.3132 19.7983 49.9626" stroke="#000DFF" stroke-width="1.93" stroke-linecap="round" stroke-linejoin="round"/>
</svg>
